<?xml version="1.0" encoding="UTF-8"?><svg xmlns="http://www.w3.org/2000/svg" width="1721.9946" height="1117.2297" viewBox="0 0 1721.9946 1117.2297"><defs><style>.cls-1{fill:#ff9d03;}.cls-2{fill:#fff;}.cls-3{mix-blend-mode:hard-light;}.cls-4{isolation:isolate;}</style></defs><g class="cls-4"><g id="Monochromatic_copy" class="cls-3"><g id="_レイヤー_63_copy"><circle class="cls-2" cx="139.6483" cy="244.9855" r="40.1173"/></g><g id="NEW_AEGIS_LOGO_Transparent_copy"><g id="Aegis_Symbolのコピー_15_copy"><g id="Neutral_Gorgonのコピー_8_copy"><g><path class="cls-1" d="M141.458,204.914c-.6002-.0274-1.2026-.0459-1.8094-.0459-.5696,0-1.1347,.019-1.6985,.0431-21.3676,.8909-38.419,18.4877-38.419,40.0743,0,22.0055,17.7198,39.8639,39.668,40.1059,.1503,.0017,.2988,.0114,.4495,.0114,.1956,0,.3884-.012,.5833-.0148,21.8859-.3134,39.5337-18.142,39.5337-40.1025,0-21.5492-16.992-39.1245-38.3076-40.0715Zm-1.8093,78.0583c-21.4322,0-38.8063-17.3742-38.8063-38.8064s17.3742-38.8063,38.8063-38.8063,38.8063,17.3742,38.8063,38.8063-17.3742,38.8064-38.8063,38.8064Z"/><path class="cls-1" d="M176.476,244.9133c.005-.2494,.019-.4967,.019-.7473,0-.2505-.014-.4976-.019-.7469,.511,.2413,1.0221,.4853,1.5331,.7468l-.1958-3.8793c-.4819,.3114-.9656,.6054-1.4495,.8966-.0402-.4986-.0897-.9944-.1496-1.4873,.5332,.1891,1.0668,.3809,1.5991,.5907l-.5824-3.8427c-.4488,.3595-.9012,.7015-1.3541,1.0408-.0906-.4925-.1908-.9813-.3009-1.4668,.5502,.1343,1.1011,.2713,1.655,.4259l-.9752-3.7631c-.4053,.4028-.822,.7902-1.2393,1.1749-.1405-.4812-.2911-.9579-.4506-1.4308,.5609,.0778,1.1227,.1583,1.6899,.2559-.4509-1.2144-.8697-2.443-1.3556-3.6428-.3548,.4398-.7315,.8691-1.1091,1.2958-.1891-.465-.3887-.9242-.596-1.3796,.5652,.0207,1.1317,.0441,1.7051,.0839-.5737-1.1609-1.092-2.3527-1.7193-3.4846-.3005,.4714-.6275,.942-.9628,1.4082-.2367-.4462-.4843-.8854-.7385-1.3205,.5632-.0361,1.128-.0696,1.7013-.0877-.6897-1.0954-1.3011-2.2445-2.0628-3.2912-.2471,.4975-.5233,.9983-.8091,1.4965-.2806-.4202-.5725-.832-.8697-1.2398,.5551-.092,1.112-.1814,1.6789-.2566l-1.163-1.5565c-.3859-.5203-.7671-1.0445-1.2203-1.5091-.1977,.5213-.4184,1.0439-.6487,1.5648-.3209-.3891-.6532-.7682-.9895-1.1438,.5409-.1462,1.0839-.2902,1.6382-.421l-1.3065-1.4378-.6545-.7177-.7177-.6545c-.1529,.5494-.3184,1.0869-.4866,1.6216-.3578-.3545-.7216-.7029-1.0935-1.0427,.5211-.1983,1.0443-.3946,1.5801-.5789-.972-.8547-1.8754-1.7925-2.947-2.5268-.0962,.5591-.2079,1.1086-.3238,1.6582-.3901-.3156-.7837-.627-1.1866-.9268,.4974-.2485,.997-.4953,1.5104-.7314-1.0404-.7712-2.0507-1.5868-3.1862-2.2178-.0436,.5716-.0969,1.125-.1544,1.6795-.4196-.2746-.843-.5436-1.2742-.8014,.4696-.2968,.9417-.5921,1.4286-.8781l-1.6615-1.0079c-.5491-.3446-1.1567-.582-1.7328-.8772,.0136,.5727,.0165,1.1266,.0157,1.6817-.4442-.2303-.8923-.4535-1.3468-.666,.4367-.342,.8759-.6829,1.3311-1.0158l-1.7518-.8421c-.592-.2616-1.2116-.4582-1.8166-.6894,.0721,.5635,.1297,1.1144,.1842,1.6657-.4636-.1832-.931-.3581-1.4035-.5228,.3991-.3836,.8008-.7664,1.2193-1.1429l-1.8262-.6662c-.6224-.178-1.2532-.3293-1.8797-.494,.1289,.549,.2411,1.091,.3507,1.6328-.4782-.1344-.9598-.2595-1.4456-.3749,.3575-.4211,.7174-.8417,1.0949-1.258l-1.8834-.4812-1.9208-.2955c.1835,.5299,.3493,1.0572,.5126,1.584-.4878-.0846-.9786-.1592-1.4727-.2243,.3125-.4541,.6273-.9076,.96-1.3597l-1.9218-.2869-1.9396-.1002c.2353,.5077,.453,1.0147,.6682,1.5213-.4925-.0346-.9875-.0591-1.4851-.0741,.2648-.4828,.532-.9654,.8169-1.4472l-1.9398-.0956-1.9398,.0956c.2851,.4818,.5524,.9645,.8174,1.4472-.4976,.015-.9925,.0394-1.4851,.0741,.2151-.5066,.4325-1.0136,.6676-1.5213l-1.9395,.1002-1.9219,.2869c.3329,.4521,.6479,.9056,.9605,1.3596-.494,.0652-.9849,.1397-1.4726,.2243,.1632-.5268,.3288-1.054,.5121-1.5839l-1.9208,.2955-1.8834,.4812c.3776,.4162,.7377,.8367,1.0954,1.2578-.4858,.1153-.9674,.2404-1.4456,.3749,.1094-.5417,.2215-1.0837,.3502-1.6327-.6266,.1648-1.2573,.316-1.8797,.494l-1.8262,.6662c.4187,.3765,.8205,.7592,1.2198,1.1427-.4726,.1647-.9399,.3396-1.4036,.5228,.0544-.5512,.1118-1.1021,.1837-1.6655-.605,.2312-1.2246,.4278-1.8166,.6894l-1.7518,.8421c.4553,.3329,.8947,.6737,1.3316,1.0156-.4545,.2125-.9026,.4358-1.3468,.666-.001-.555,.0018-1.109,.0152-1.6816-.5761,.2952-1.1837,.5327-1.7328,.8772l-1.6615,1.0079c.4871,.2859,.9594,.5812,1.4291,.8779-.4312,.2577-.8546,.5268-1.2743,.8014-.0577-.5544-.1111-1.1078-.1548-1.6793-1.1355,.631-2.1458,1.4467-3.1862,2.2178,.5136,.236,1.0135,.4827,1.511,.7311-.4029,.2998-.7966,.6112-1.1866,.9268-.1161-.5496-.2279-1.099-.3244-1.658-1.0716,.7344-1.9749,1.6722-2.9469,2.5268,.536,.1842,1.0594,.3805,1.5807,.5786-.372,.3398-.7359,.6882-1.0936,1.0428-.1684-.5346-.334-1.0721-.487-1.6214l-.7177,.6545-.6545,.7177-1.3065,1.4378c.5545,.1307,1.0976,.2745,1.6387,.4206-.3363,.3756-.6688,.7547-.9897,1.1439-.2304-.5207-.4512-1.0433-.6491-1.5645-.4533,.4646-.8345,.9888-1.2203,1.5091l-1.163,1.5565c.567,.0751,1.1242,.1644,1.6795,.2563-.2972,.4079-.5892,.8197-.8699,1.24-.286-.4981-.5623-.9989-.8096-1.4963-.7617,1.0467-1.3731,2.1958-2.0628,3.2912,.5735,.018,1.1385,.0513,1.7019,.0873-.2543,.4352-.502,.8745-.7387,1.3208-.3354-.4662-.6626-.9367-.9632-1.4081-.6274,1.1319-1.1456,2.3237-1.7193,3.4846,.5736-.0399,1.1403-.0635,1.7057-.0844-.2074,.4555-.4071,.9149-.5962,1.38-.3777-.4266-.7546-.8559-1.1095-1.2956-.4859,1.1998-.9047,2.4285-1.3556,3.6428,.5673-.0978,1.1294-.1785,1.6904-.2565-.1595,.473-.3101,.9498-.4507,1.4311-.4175-.3846-.8343-.7719-1.2398-1.1746l-.9752,3.7631c.5541-.1549,1.1052-.292,1.6555-.4265-.1101,.4856-.2103,.9745-.301,1.4671-.453-.3392-.9056-.6811-1.3545-1.0405l-.5824,3.8427c.5325-.2101,1.0662-.402,1.5995-.5913-.0599,.493-.1095,.9888-.1497,1.4875-.484-.2911-.9678-.5849-1.4498-.8962l-.1958,3.8793c.5111-.2618,1.0223-.506,1.5334-.7475-.005,.2495-.019,.4969-.019,.7476,0,.2505,.014,.4976,.019,.7469-.5111-.2414-1.0223-.4854-1.5334-.747l.1958,3.8794c.482-.3115,.9658-.6055,1.4498-.8968,.0402,.4987,.0897,.9946,.1497,1.4876-.5333-.1892-1.067-.3809-1.5994-.5908l.5824,3.8427c.4489-.3596,.9014-.7017,1.3544-1.041,.0907,.4926,.1909,.9815,.301,1.4671-.5503-.1343-1.1013-.2713-1.6554-.426l.9752,3.7631c.4054-.4029,.8221-.7903,1.2396-1.1751,.1406,.4813,.2912,.958,.4507,1.431-.561-.0778-1.123-.1584-1.6902-.256,.4509,1.2144,.8697,2.443,1.3556,3.6428,.3548-.4399,.7315-.8693,1.1092-1.296,.1891,.4651,.3888,.9244,.5962,1.3799-.5653-.0207-1.1318-.0441-1.7054-.0839,.5737,1.1609,1.0919,2.3527,1.7193,3.4846,.3006-.4715,.6277-.9421,.963-1.4085,.2367,.4463,.4844,.8855,.7386,1.3207-.5633,.0361-1.1282,.0697-1.7016,.0878,.6897,1.0954,1.3011,2.2445,2.0628,3.2912,.2471-.4975,.5233-.9985,.8092-1.4967,.2807,.4203,.5726,.8321,.8698,1.24-.5551,.092-1.1122,.1814-1.6791,.2567l1.163,1.5565c.3859,.5203,.7671,1.0445,1.2203,1.5091,.1977-.5213,.4184-1.044,.6487-1.5649,.3209,.3892,.6534,.7683,.9896,1.1439-.541,.1462-1.084,.2902-1.6383,.421l1.3065,1.4379,.6545,.7177,.7177,.6545c.1529-.5494,.3183-1.087,.4866-1.6217,.3578,.3546,.7216,.703,1.0936,1.0428-.5211,.1983-1.0444,.3946-1.5802,.5789,.972,.8547,1.8754,1.7925,2.9469,2.5268,.0963-.5591,.2079-1.1085,.3239-1.6582,.3901,.3156,.7836,.627,1.1866,.9268-.4974,.2485-.9971,.4953-1.5105,.7314,1.0405,.7712,2.0507,1.5868,3.1862,2.2178,.0436-.5716,.0968-1.125,.1544-1.6795,.4196,.2746,.8429,.5436,1.2741,.8014-.4696,.2968-.9416,.5921-1.4285,.8781l1.6615,1.0079c.5491,.3446,1.1567,.582,1.7328,.8772-.0136-.5726-.0165-1.1266-.0157-1.6817,.4442,.2303,.8923,.4535,1.3467,.666-.4367,.342-.8759,.6828-1.3311,1.0157l1.7518,.8421c.592,.2615,1.2117,.4582,1.8166,.6894-.0721-.5635-.1297-1.1144-.1842-1.6656,.4636,.1832,.931,.3581,1.4035,.5228-.3991,.3836-.8008,.7664-1.2192,1.1428l1.8262,.6662c.6224,.178,1.2532,.3293,1.8797,.494-.129-.549-.2412-1.0909-.3507-1.6327,.4781,.1344,.9598,.2595,1.4455,.3748-.3575,.4211-.7174,.8417-1.0948,1.2578l1.8834,.4812,1.9208,.2955c-.1835-.5299-.3493-1.0571-.5126-1.584,.4877,.0846,.9785,.1592,1.4725,.2243-.3124,.4541-.6272,.9075-.9599,1.3596l1.9219,.2869,1.9395,.1002c-.2353-.5077-.4529-1.0146-.6682-1.5212,.4925,.0346,.9874,.0591,1.485,.0741-.2648,.4827-.532,.9654-.8168,1.4471l1.9398,.0956,1.9398-.0956c-.285-.4818-.5524-.9644-.8174-1.4471,.4976-.015,.9925-.0394,1.485-.0741-.2151,.5066-.4325,1.0135-.6676,1.5212l1.9396-.1002,1.9218-.2869c-.3329-.4521-.6479-.9055-.9604-1.3596,.494-.0651,.9848-.1397,1.4725-.2243-.1632,.5267-.3288,1.054-.5121,1.5839l1.9208-.2955,1.8834-.4812c-.3776-.4162-.7377-.8367-1.0954-1.2577,.4857-.1153,.9674-.2404,1.4455-.3748-.1093,.5417-.2214,1.0836-.3502,1.6325,.6265-.1648,1.2573-.316,1.8797-.494l1.8262-.6662c-.4186-.3764-.8204-.7591-1.2197-1.1426,.4725-.1646,.9398-.3396,1.4034-.5228-.0544,.5512-.1118,1.102-.1837,1.6654,.605-.2312,1.2246-.4278,1.8166-.6894l1.7518-.8421c-.4553-.3328-.8946-.6736-1.3315-1.0155,.4544-.2125,.9025-.4357,1.3467-.6659,.001,.5549-.0018,1.1089-.0152,1.6814,.5761-.2952,1.1837-.5327,1.7328-.8772l1.6615-1.0079c-.4871-.2859-.9592-.5811-1.429-.8778,.4312-.2577,.8545-.5267,1.2741-.8013,.0577,.5544,.1111,1.1076,.1548,1.6791,1.1355-.631,2.1458-1.4467,3.1862-2.2178-.5135-.236-1.0133-.4827-1.5107-.731,.4029-.2998,.7964-.6112,1.1865-.9267,.1161,.5495,.2279,1.0988,.3243,1.6577,1.0716-.7344,1.9749-1.6722,2.947-2.5268-.5359-.1842-1.0593-.3804-1.5804-.5785,.3719-.3397,.7357-.6881,1.0935-1.0427,.1683,.5345,.3339,1.072,.487,1.6212l.7177-.6545,.6545-.7177,1.3065-1.4379c-.5543-.1306-1.0974-.2745-1.6385-.4205,.3362-.3755,.6686-.7546,.9895-1.1437,.2303,.5207,.4512,1.0431,.649,1.5642,.4532-.4646,.8344-.9888,1.2203-1.5091l1.163-1.5565c-.5669-.0751-1.1239-.1644-1.6791-.2562,.2972-.4078,.5891-.8195,.8697-1.2397,.286,.498,.5622,.9986,.8094,1.4959,.7617-1.0467,1.3731-2.1958,2.0628-3.2912-.5733-.018-1.1382-.0513-1.7015-.0873,.2542-.4351,.5018-.8742,.7385-1.3204,.3353,.4661,.6624,.9364,.963,1.4077,.6274-1.1319,1.1456-2.3237,1.7193-3.4846-.5735,.0399-1.14,.0634-1.7053,.0843,.2073-.4554,.4069-.9146,.596-1.3796,.3777,.4265,.7544,.8557,1.1092,1.2953,.4858-1.1998,.9047-2.4285,1.3556-3.6428-.5672,.0978-1.1291,.1785-1.69,.2564,.1594-.4729,.31-.9495,.4506-1.4307,.4174,.3845,.8341,.7718,1.2394,1.1743l.9752-3.7631c-.5539,.1549-1.1049,.292-1.6551,.4264,.1101-.4854,.2103-.9742,.301-1.4667,.4529,.3391,.9053,.681,1.3542,1.0403l.5824-3.8427c-.5323,.21-1.0659,.4019-1.5992,.5911,.0599-.4929,.1095-.9886,.1497-1.4872,.4839,.2911,.9676,.5848,1.4495,.896l.1958-3.8794c-.511,.2617-1.0221,.5059-1.5331,.7474Zm-.7179-.7757l-14.367-1.0685c-.4229-.4084-.9981-.9614-1.5174-.9614h-.0091c-.4749,.0053-.6826,.4488-.7973,.7886l-1.3598-.1011c.9387-.3026,1.7217-.9984,2.2792-1.7413l14.9879-4.3695c.5091,2.4061,.7816,4.8983,.7836,7.4533Zm-13.3719,3.645c-.0166,.0591-.0355,.1184-.0535,.1777h0l-.0004,.0012c-.0636,.21-.1308,.42-.1799,.6214-.1084,.4438-.2224,.8864-.3421,1.3274h0c-.1098,.4045-.2242,.8078-.346,1.2085-.0611,.2008-.262,.3613-.4067,.5336-.1302,.1552-.4032,.3182-.3863,.4482,.0149,.1143,.0098,.2062-.0038,.2888-.0377,.2289-.1732,.3504-.3464,.4378h0c-.1218,.0615-.2623,.1065-.4007,.1599l-.001,.0004c-.0581,.0224-.1157,.046-.1715,.0734-.1543,.0758-.308,.1304-.4612,.1708-.0441,.0117-.0878,.0153-.1318,.0244-.1109,.023-.2218,.0445-.332,.0533-.0425,.0035-.0846,.0022-.127,.004-.1156,.0044-.2312,.0067-.3459,0-.0253-.0014-.0504-.0043-.0757-.0062-.6533-.0503-1.289-.2348-1.8976-.2624h0c-.0957-.0043-.1919-.0111-.2862-.006-.009-.0331-.0145-.0695-.0217-.1045h0c-.0361-.1754-.0571-.3593-.101-.4825-.0041-.0118-.0072-.0264-.0118-.0368-.0201-.0451-.0443-.08-.0772-.0944-1.2127-.5311-.4438-1.426-.4209-2.1688,.001-.0304,.009-.0611,.0151-.0917,.0608-.1199,.119-.2443,.1785-.3661h0c.0495-.1012,.1005-.1993,.1482-.3041,.0775-.1038,.1737-.199,.2686-.211,.0987-.0124,.265,.1772,.333,.3114,.2933,.5795,1.414,1.3266,1.9034,1.2427,.2375-.0407,.4443-.1367,.6276-.2644,.2325-.0663,.4543-.1754,.6498-.3356,.2667-.2189,.4615-.5101,.5729-.8295,.0024-.0065,.0057-.0126,.008-.0192,.0435-.1292,.0763-.2618,.0894-.3979,.0421-.4386-.0595-1.0967-.3021-1.4386-.0709-.0995-.1611-.1791-.2519-.2551h-.0001s0-.0001,0-.0001c-.019-.0159-.0374-.033-.0563-.0486-.1183-.0973-.2403-.1972-.3303-.334-.1887-.2853-.3018-.6554-.3366-1.1006-.007-.0897-.0035-.1789-.004-.2683-.0021-.4039,.0533-.8031,.1272-1.1707,.0252-.1222,.0516-.2428,.0789-.3571,.0165-.0703,.0332-.1552,.051-.2459,.0304-.1549,.0654-.3298,.1117-.4975,.0545-.0511,.1208-.0917,.187-.1322,.0647-.0352,.1346-.0657,.2096-.0912h0c.0619-.021,.1175-.0482,.1899-.0587,.2924-.0422,.5345,.0028,.7329,.1273h0c.193,.1212,.3448,.3174,.4578,.5878,.2285,.5465,.4882,1.0832,.7315,1.6243,.2197,.4887,.4264,.9809,.5799,1.4886-.017,.0685-.0339,.1364-.051,.2093-.0572,.2454-.0312,.5495,.0088,.8579Zm-4.5786,15.7756c-.0036,.0151-.0013,.0308-.0041,.0461-.0654,.082-.1446,.166-.2286,.2501-.0284,.0284-.0588,.0567-.089,.0851-.0593,.0558-.1221,.1112-.1873,.1664-.0382,.0322-.0754,.0647-.1153,.0965-.6813,.5443-1.5889,1.0131-2.0895,.9779-.1941-.0136-.3809-.1317-.5709-.2017,.0788-.1805,.1498-.3652,.2385-.5408,.1106-.2188,.2571-.4214,.3509-.6465,.2653-.6368,.5061-1.2838,.7671-1.9226,.1492-.3651,.3191-.7231,.4739-1.086,.0266-.0435,.0569-.0848,.0819-.1293,.183-.3274,.7287-1.449,.0591-2.163-.0454-.0485-.1071-.0769-.1595-.1171-.3213-.5371-.8306-.9671-1.4122-1.0984-1.3533-.3054-2.3062-1.1165-2.7502-2.1794-.0445-.1064-.0831-.2158-.1172-.327-.0031-.01-.0064-.02-.0094-.0301-.0309-.1038-.0565-.2099-.0782-.3174-.0041-.0205-.0081-.041-.0118-.0617-.0183-.0995-.0325-.2005-.0429-.3027-.0033-.0328-.0056-.0659-.008-.099-.0071-.0934-.0114-.1876-.0118-.283,0-.0457,.0021-.092,.0036-.1381,.0026-.0858,.006-.1718,.0141-.2589,.0058-.0614,.0154-.1235,.024-.1854,.0102-.0749,.0193-.1495,.0336-.2251,.0158-.0828,.0372-.1665,.0579-.2501,.0142-.0575,.0254-.1147,.0419-.1725,.0412-.1434,.0886-.2877,.1445-.4325,.2067-.5357,.1109-1.1883,.3188-1.7232,.3954-1.0177,.9598-1.9695,1.3599-2.9856,.3976-1.0098,.7255-2.0536,.9925-3.1056,.1283-.5057,.2245-.8603,.8423-.8211,.6569,.0417,.6808,.4822,.6797,.9644-.0015,.6121-.0004,1.2242-.0004,1.8363,.045,.0133,.0899,.0265,.1348,.0397-.0044,.0168-.0101,.0334-.0145,.0503h0c-.1119,.4269-.2441,.8494-.3865,1.2687-.0308,.0908-.062,.1814-.0943,.2717-.1507,.422-.3122,.8406-.4942,1.2508-.0693,.1561-.1467,.3084-.2205,.4624h0c-.0675,.1408-.1304,.2838-.2016,.4228-.0779,.1526-.1824,.3354-.2935,.528-.1418,.2475-.2947,.5241-.4387,.808-.0048,.0096-.0097,.0187-.0145,.0283-.0713,.1417-.1346,.2834-.1962,.4281-.0033,.0078-.0064,.0154-.0096,.0232-.1192,.2834-.221,.5681-.2646,.8405-.1288,.295-.1638,.608-.1171,.902,.0006,.0039,.002,.0076,.0026,.0115,.0141,.0847,.0337,.1677,.0619,.2481,.0052,.015,.0133,.0287,.0189,.0435,.0265,.0685,.0547,.136,.0915,.1998,.016,.0281,.0375,.053,.0556,.08,.0324,.0482,.0629,.0974,.1015,.1417,.0338,.039,.0751,.0726,.1137,.1082,.0304,.028,.0571,.0588,.0904,.0844,.0762,.0586,.1596,.111,.2509,.1556,.1371,.0669,.3484-.0182,.5255-.0326,.8409-.0683,1.734-.3362,2.5049-.1353,.5286,.1377,.9494,.8866,1.3099,1.4338,.4713,.7153,.7048,1.4529,.744,2.2048,.0066,.1362,.0023,.2733-.004,.4105-.0016,.0379,0,.0757-.0024,.1136-.0118,.1666-.0327,.3339-.0619,.5016-.001,.0056-.0014,.0112-.0024,.0168-.031,.1747-.0711,.35-.1198,.5257-.0732,.2643-.1589,.5294-.2708,.7956-.1943,.4624-.3857,.926-.5773,1.3897-.3414,.5663-.6716,1.1493-.8195,1.7594Zm-2.384-3.4363c-.2781,.4453-.712,.8083-1.0581,1.2227-.101,.121-.1981,.2452-.2974,.3677h0c-.4592,.5662-.9075,1.1415-1.3838,1.6928-.162,.1875-.3319,.3545-.5023,.5204-.107,.1041-.2161,.2028-.326,.2989-.1433,.1242-.2876,.2456-.4363,.3549-.0708,.0528-.1436,.0997-.2156,.149-1.0452,.7062-2.218,1.0447-3.4974,.9905h0c-.2039-.0086-.41-.026-.6182-.0514-.2397-.0334-.4802-.0696-.7269-.1303-.0955-.0235-.1919-.0547-.2883-.0922-.0811-.0316-.162-.0702-.2425-.1106-.0147-.0074-.0296-.0126-.0443-.0203-.1901-.0991-.3768-.2206-.5534-.3573-.3624-.2805-.6821-.6248-.9-.9722-.5727-.9132-1.1703-1.9639-.8443-3.168,.006-.0224,.0154-.0454,.0223-.0681h0c.0197-.0645,.0431-.1299,.0695-.1944,.0036-.0088,.008-.0172,.0118-.0259,.0237-.0558,.0495-.1109,.0783-.164,.0146-.0265,.0316-.0506,.0475-.076,.0218-.0352,.0427-.0713,.0669-.1037,.0432-.0572,.0896-.1103,.1404-.1555,.6454-.5749,1.3168-1.1207,1.9785-1.6774,.0002-.0001,.0003-.0003,.0005-.0004h0c.2254-.1896,.4541-.3756,.6743-.5711,.7059-.6271,1.3496-1.3246,2.0578-1.949,.0979-.0863,.5445,.0063,.5975,.1222,.0446,.0976,.0825,.1951,.1156,.2924,.0065,.0188,.0121,.0376,.0181,.0564,.0973,.3116,.1238,.6207,.0134,.9237h0c-.0491,.1348-.1275,.2681-.2368,.4001h0c-.029,.035-.053,.0703-.0867,.105-.4698,.4842-.847,1.0569-1.2834,1.5752-.0631,.075-.1183,.1518-.1668,.2301-.0334,.0537-.0594,.109-.0865,.164-.0119,.0243-.0269,.0479-.0377,.0723-.033,.0747-.0596,.1506-.0829,.2271-.0015,.0048-.0037,.0095-.0051,.0144-.0242,.0817-.0431,.1644-.0579,.2478,0,.0001,0,.0002,0,.0003h0c-.0022,.0126-.0062,.0248-.0082,.0374-.0202,.0479-.044,.0924-.0629,.1413-.2321,.601-.2081,1.2433,.0628,1.6766,.2104,.3359,.5595,.5331,1.0095,.5713,.2084,.0173,.4079-.0169,.6038-.0697h0c.0647-.0174,.1306-.0287,.1942-.0517,.1756-.0099,.3406-.0422,.5011-.0837,.0431-.0112,.0851-.0246,.1273-.0378,.129-.0403,.2542-.0885,.3752-.1454,.0261-.0123,.0532-.0226,.079-.0357,.5996-.3018,1.113-.781,1.6307-1.2371,.2587-.2279,.485-.4925,.704-.7654h0c.1967-.2451,.3875-.4967,.5898-.7354-.0287-.0383-.0575-.0765-.0862-.1147,.1871-.2263,.3506-.4667,.4828-.7227,.0179-.0003,.0358-.0004,.0539-.0011,.0961-.0034,.1922-.0201,.2882-.0401,.1151-.0233,.2301-.0507,.3446-.0725,.1071-.0204,.214-.0361,.3202-.0307,.2925,.0149,.7378,.0843,.8319,.2721,.1694,.3381,.29,.8668,.1366,1.164-.0255,.0495-.0619,.0932-.0914,.1405h0Zm-8.0918,6.7688c-.0612,.0973-.1292,.1943-.1994,.291-.0179,.0251-.0346,.0503-.0531,.0752-.089,.1183-.184,.2353-.2854,.3494-.0006,.0007-.0012,.0014-.0019,.0022-.1051,.118-.2165,.2329-.3338,.343-.6184,.5803-1.4041,1.0248-2.3187,1.0565,.0197-.1946-.0119-.3616-.0963-.5095-.2932-.5148-1.0234-.5759-1.6101-.6252-.1052-.0092-.2048-.0171-.2962-.0276-.3178-.037-.6424-.0631-.9684-.0802-.0001,0-.0002,0-.0004,0h0c-.1602-.0084-.3203-.019-.4811-.019-.5138,0-1.0266,.0487-1.522,.186-.0316,.0092-.0618,.0217-.0911,.0335-.0171,.0073-.0352,.0145-.0529,.021l-.0003-.0006c-.002-.0112-.0049-.0256-.0178-.0394-.3202-.3332-.6049-.6997-.868-1.0838,.9734-.1381,1.9243-.3719,2.6942-.9714h.0001c.135-.1053,.2662-.2181,.3891-.3474,.3262,.3502,.6975,.5994,1.0863,.6886,.1047,.0237,.222,.0357,.345,.0361,.1228,.0018,.25-.0106,.3776-.0332,.0003,0,.0006,0,.001,0h0c.2906-.0516,.5757-.1646,.7762-.3625,.2551,.2019,.4782,.3373,.7011,.4247,.4342,.1712,.9007,.2211,1.3717,.2341h0c.2577,.0072,.5165,.0066,.773,.0012l.1617-.0026c.2762-.0053,.5188-.0138,.74-.0257-.0643,.1268-.1397,.2563-.2203,.3858Zm-7.2936,4.5253c-.8867,.3328-1.774,.5546-2.694,.6873h0c-.3689,.0532-.7419,.0957-1.1241,.1198-1.018,.0641-1.8877-.0692-2.6347-.6873-.6588-.5453-1.0535-1.2332-1.1889-2.1707-.0129-.0891-.0192-.1773-.0273-.2657h0c-.0731-.7966,.03-1.567,.0863-2.3412,.0171-.2307,.0309-.4616,.0332-.6939,.0017-.1701-.0123-.327-.0398-.4714-.004-.0206-.0129-.0364-.0174-.0565-.0272-.1214-.0604-.237-.1073-.3388-.0028-.006-.0072-.0102-.01-.0161-.109-.2285-.2656-.4065-.4625-.5309h0c-.3911-.2473-.9351-.2878-1.5618-.102-.4754,.141-.9681,.2426-1.4657,.3186h0c-.3042,.0465-.6104,.0826-.9165,.1086-.0016,.0001-.0032,.0004-.0048,.0005-.3071,.0259-.6141,.0415-.9189,.0464-.0662,.0011-.1345-.0095-.2027-.0209-.0551-.0107-.1104-.0239-.1659-.0407-.5819-.1761-1.1698-.7496-1.3413-1.4662-.1486-.6214-.169-1.1956-.0941-1.7362,.0701-.5054,.2315-.9784,.4664-1.4271,.0175-.033,.0367-.0656,.055-.0983,.0986-.1782,.2107-.352,.3328-.5225,.0334-.0464,.0649-.0934,.0999-.1393,.1506-.198,.3124-.3924,.4924-.5812,.2303-.2415,.7656-.192,1.1601-.2768-.0381,.1121-.0659,.236-.0939,.3597-.032,.138-.0657,.2741-.1158,.3913-.0381,.0891-.0839,.1692-.1497,.2262-.5429,.4701-1.1709,.8308-1.2708,1.6387-.1231,.9952,.3328,1.7004,1.1197,2.2234,.0049,.0032,.0096,.0044,.0145,.0076h0s.0004,.0002,.0005,.0003c.7011,.4542,1.3321,.0521,1.917-.2771,.4617-.2598,.9122-.5397,1.3607-.823,.2511-.0926,.4465-.1734,.551-.222l.0954-.044c.3891-.181,.8763-.4052,1.3806-.5871h0c.1522-.0549,.3058-.1069,.459-.1516,.5087,.0787,1.0127,.3158,1.3294,.6658,.0927,.1025,.1787,.2059,.2611,.3103,.0205,.0259,.0404,.052,.0601,.0781,.0813,.1078,.1583,.2167,.2248,.3291,.2481,.4196,.3804,.8788,.3073,1.433,.0591,.0246,.1182,.0492,.1773,.0737-.0043,.046-.0066,.0903-.0116,.1366-.4222,.7846-.7582,1.6431-1.3243,2.3045-.95,1.11-.953,2.8123,.1734,3.7296,.0998,.0813,.2084,.1672,.3275,.207,.4764,.1588,1.0245,.1488,1.5511,.0182h0s.0001,0,.0002,0c.1587-.0394,.3136-.0899,.4656-.1517,.0018-.0007,.0035-.0014,.0053-.0021,.1496-.0612,.293-.1322,.4309-.2135,.0031-.0018,.0062-.0036,.0092-.0054,.1378-.0819,.2669-.1726,.3878-.2729,.0014-.0011,.0028-.0022,.0042-.0034,.1604-.1336,.3098-.2769,.4297-.4395,.7512-1.0185,2.4413-1.4249,3.6825-.802,.5181,.2599,1.0519,.6314,1.3687,1.0954,.0977,.1432,.1058,.3771,.0729,.6191-.2264,.3151-.4597,.6-.6483,.8224-.1562-.0384-.3242-.1117-.4832-.1299-.5966-.068-1.2651-.0501-1.8185,.1576Zm-14.7901-15.3188c-.1534,.0148-.2986,.0201-.4384,.0192-.0433-.0003-.0832-.0043-.1252-.006-.095-.0039-.1886-.0095-.2773-.0206-.0436-.0054-.0849-.0133-.127-.0204-.0832-.0141-.1644-.0305-.2419-.051-.0374-.0098-.0741-.0206-.1102-.0319-.0796-.025-.1562-.0535-.2296-.0853-.0275-.0119-.0555-.0233-.0821-.0361-.0844-.0407-.1646-.0859-.2406-.1354-.0116-.0075-.0241-.0141-.0355-.0218-.2742-.1868-.4932-.4303-.6636-.7182-.2757-.4661-.4253-1.0463-.4771-1.6863h0c-.0108-.1335-.0187-.2686-.0213-.4067-.0043-.2252-.0003-.4494,.0083-.6731,.0056-.1362,.0162-.2717,.0264-.4073,.0057-.0782,.0101-.1566,.0172-.2346,.017-.1801,.0382-.3597,.0627-.5389,.0035-.026,.0066-.0519,.0102-.0779,.0287-.2014,.0614-.4023,.0987-.6026,.0721-.3877,.1575-.7734,.2599-1.1567,.0821-.3075,.1754-.6132,.274-.918,.0198-.0611,.0395-.1222,.06-.1831,.1021-.3052,.2099-.6094,.3267-.9119,.0756-.1956,.1438-.3929,.2055-.5917,.002-.0064,.0034-.0129,.0053-.0193,.0595-.1929,.1127-.3871,.1595-.5827,0,0,0-.0001,0-.0002h0c.024-.1003,.0424-.2016,.0631-.3025h0s0-.0003,0-.0004c.2061-1.0039,.2527-2.0362,.1604-3.0729,0-.0002,0-.0004,0-.0007h0c-.0068-.0771-.0111-.154-.0195-.2311h0c-.0008-.0074-.001-.0148-.0019-.0222-.0874-.7913-.7639-1.0497-1.4134-1.235-.1333-.038-.2559-.0505-.3737-.0518-.0236-.0002-.0474-.0009-.0704,.0003-.1145,.0055-.2225,.0251-.322,.0622-.0056,.0021-.0106,.0053-.0162,.0075-.1027,.0403-.1968,.097-.2837,.1667-.0037,.003-.0077,.0054-.0114,.0085-.0907,.0745-.1726,.1636-.2464,.2651h-.0001s0,.0001,0,.0001c-.0802,.1103-.1529,.2318-.2139,.3674-.136,.3021-.2636,.6081-.3942,.9127h0s-.0003,.0007-.0004,.0011c-.3298,.7691-.6505,1.5422-.9664,2.3172-.3665,.899-.8511,1.1351-1.7948,.9443-.1538-.031-.3423,.11-.5254,.2263-.0243-.0151-.0526-.022-.0778-.0354,.214-.649,.28-1.3247,.3597-2.0023,.0711-.2009,.138-.4034,.2015-.6049,.0682-.2168,.139-.4364,.217-.6534,.1031-.2873,.2199-.5699,.3714-.8325,.2246-.3893,.5183-.8119,.8684-1.2109,.1141-.1301,.2343-.2574,.3604-.3803,.1417-.1351,.2876-.2675,.4466-.387,.9438-.4305,2.0497-.4794,3.2228-.3406,.1855,.0219,.3674,.1033,.5515,.1051,.6132,.0059,.9039,.011,1.117,.1442,.1979,.0806,.5121,.2591,.8341,.5793,.0046-.0033,.0078-.0066,.0124-.0099,.0315,.0341,.057,.0725,.0878,.1071,.0252,.0278,.051,.0436,.0758,.0734l-.0092,.0078c.0476,.0569,.1007,.1097,.1409,.1718,.8874,1.372,1.2207,3.0487,1.0211,4.619-.0036-.0092-.0071-.0184-.0109-.0281-.142,.1653-.2802,.2814-.3621,.4287-.4827,.8676-.9222,1.7608-1.434,2.6105-.0286,.0476-.0586,.0947-.0878,.1421h0c-.0029,.0047-.0058,.0095-.0088,.0142h0c-.1963,.3185-.3995,.6351-.5864,.9574-.0198,.0341-.04,.0681-.0594,.1023-.0511,.0904-.0985,.1821-.1456,.2739-.0236,.046-.0484,.0917-.0708,.1381-.0418,.0866-.0784,.175-.1153,.2633-.0213,.0509-.0446,.1011-.064,.1527-.0332,.0885-.0593,.1794-.0863,.2701-.0158,.0531-.0348,.1051-.0482,.159-.0243,.0981-.0391,.1996-.0545,.3008-.0074,.0486-.0195,.0957-.0247,.145-.0158,.152-.0216,.3074-.0139,.4676,.0082,.1699,.0377,.3644,.0845,.5558h0c.0862,.3522,.237,.6882,.4497,.8432h0c.0156,.0114,.0298,.0269,.0461,.0362,.2277,.1301,.5446,.2101,.8599,.2293,.0038,.0003,.0073,.0014,.011,.0017,.3216,.018,.6409-.0288,.8626-.1553,.1442-.0823,.2675-.2033,.3846-.335,.6678-.532,1.2796-1.407,1.6847-2.1977,.0827,.0907,.158,.1852,.2267,.2826,.023,.0326,.0411,.0673,.0626,.1006,.0424,.0657,.0856,.1312,.122,.1991,.0236,.0441,.0417,.0898,.0628,.1347,.0278,.0592,.0571,.1178,.0806,.1782,.0202,.0521,.035,.1053,.052,.1581,.0176,.0546,.0369,.1088,.0511,.164,.0153,.0596,.0254,.1198,.0368,.1799,.0093,.0489,.0202,.0975,.027,.1467,.0091,.0669,.0132,.1338,.0176,.2009,.0028,.0424,.0071,.0847,.0081,.1271,.0016,.0737-.0016,.1472-.0055,.2206-.0018,.0347-.0025,.0696-.0055,.1042-.0072,.08-.019,.1592-.0328,.2381-.0046,.027-.0084,.0542-.0138,.081-.0173,.0849-.0391,.1687-.064,.2516-.0058,.0194-.0109,.039-.0171,.0583-.0284,.0881-.0615,.1747-.0984,.2597-.0055,.0127-.0107,.0256-.0164,.0382-.0406,.0897-.0858,.1774-.1358,.2625-.0038,.0066-.0075,.0132-.0114,.0198-.0531,.0887-.111,.1746-.1741,.2571-.0022,.0029-.0044,.0058-.0065,.0086-.0654,.0848-.1359,.1662-.2117,.2433-.0005,.0005-.001,.001-.0014,.0015-.2316,.2352-.5115,.4322-.8368,.5749-.0694,.0304-.1369,.0631-.2104,.0885-.5098,.1759-1.0461,.2959-1.583,.3731h0c-.1165,.0168-.2325,.0452-.3489,.0564Zm-4.6455-10.3191c-.0195-.1054-.0375-.2125-.0532-.3205l2.5717,.1913c-.0677,.2-.1448,.3946-.2317,.5839l-2.2424,.6538c.0127-.0701,.029-.1392,.0355-.2111,.0282-.3116-.0266-.6094-.0799-.8974Zm1.0633-10.9428h0c.0915-.2693,.1953-.5388,.325-.8094,.1452-.3028,.2908-.6001,.4406-.8929h0c.0007-.0013,.0014-.0026,.0021-.0039,.0925-.1806,.1882-.3584,.2878-.5334,.0606-.1063,.1263-.2092,.1907-.313,.066-.1068,.1352-.2118,.2062-.3157,.0717-.1045,.1436-.2089,.2212-.3101,.1315-.1722,.2712-.3401,.4237-.5014,.0002-.0002,.0003-.0004,.0004-.0005h0c.0211-.0223,.0371-.0473,.0587-.0694,.4532-.4642,.9463-.8034,1.4724-1.0415,.2082-.0942,.4225-.1693,.6407-.2329,.0558-.0162,.1131-.0278,.1695-.0422,.162-.0413,.326-.0761,.4929-.1025,.0717-.0113,.1438-.0213,.2164-.03,.1627-.0196,.3277-.0322,.4945-.0393,.0681-.0029,.1354-.008,.2041-.009,.2323-.0032,.4672,.0015,.7065,.0191,.0549,.004,.1256,.0284,.193,.0577h0c.1071,.0464,.204,.1086,.2017,.1473-.0138,.2339-.0259,.4703-.0438,.7056-.0042,.0551-.0072,.1104-.0124,.1654-.009,.0955-.0228,.1898-.036,.2843-.0065,.0465-.0104,.0936-.0181,.1397-.0234,.1394-.053,.2771-.0915,.4121-.1246,.4365-.4457,.7194-1.0214,.7065-.1338-.003-.2662,.0019-.3971,.0131h0c-.6087,.052-1.1809,.2563-1.6853,.568-.0076,.0047-.0151,.0093-.0227,.0141-.1923,.1206-.3742,.2561-.5437,.4068-.0085,.0076-.0165,.0154-.0249,.0231-.1697,.1534-.3281,.3188-.4703,.4982,0,.0001-.0001,.0002-.0002,.0003-.1465,.1848-.2775,.382-.3904,.5898,0,0,0,0,0,.0001h0c-.2548,.4689-.419,.9895-.4654,1.5356-.0002,.0027-.0008,.0053-.0011,.008-.0114,.1377-.0158,.2769-.0119,.4173,.0091,.3271,.023,.657,.0384,.9919,.0045,.0977,.009,.2005,.0138,.2997,.0102,.2082,.0208,.4225,.032,.6403,.0053,.1033,.0098,.1986,.0152,.3044,.0108,.2154,.0218,.4334,.0324,.6626-.0612-.0075-.1185-.0128-.1782-.0192-.0456-.0081-.0888-.0195-.1349-.0268-.1969-.0313-.3932-.045-.5888-.0503-.2305-.0272-.4526-.0604-.6672-.1174-.1936-.0514-.4215-.3259-.4648-.5341-.0745-.3576-.1219-.7099-.1454-1.0591h0c-.0585-.8654,.0483-1.71,.3359-2.5569Zm5.7583-9.7828c.0004-.0033,0-.0068,.0005-.0101,.0107-.0911,.0151-.184,.0136-.2777-.0007-.0492-.0075-.0985-.0116-.1479-.004-.0469-.0061-.0936-.0132-.1404-.0091-.0609-.024-.1203-.0383-.1804-.008-.0332-.0144-.0665-.024-.0993-.0197-.0681-.045-.1335-.0717-.1991-.0091-.022-.0172-.0442-.027-.0658-.0319-.071-.0692-.1384-.1097-.2047-.0083-.0134-.0163-.0268-.0249-.0401-.0453-.0699-.0958-.1354-.1511-.1981-.0063-.0071-.0128-.0139-.0192-.0209-.0595-.0649-.1241-.1247-.1948-.1794-.0037-.0028-.0076-.0054-.0114-.0082-.1356-.1028-.2859-.191-.4628-.2461-.2126-.0661-.3952-.0359-.5735,.023,.013-.0071,.0267-.0163,.0396-.0228-.2856-.0639-.6061-.0481-.9568,.0627,.001-.6184,.3885-1.21,.9414-1.566h0c.1187-.0764,.2456-.1402,.3768-.1935,.0154-.006,.0301-.0136,.0457-.0193,.1375-.0521,.2804-.0914,.4283-.1103,.2239-.0287,.4512-.0469,.676-.0485h0c.5853-.0041,1.152,.1159,1.5839,.5421,.3596,.3548,.658,.9729,.6455,1.4641-.0098,.3848-.0402,.7692-.0778,1.1534-.0416,.4249-.0959,.8493-.1546,1.2734-.0025,.018-.0048,.0359-.0074,.0538-.0581,.416-.1202,.8316-.1798,1.2466-.0185,.1284-.3359,.338-.4508,.3026-.0601-.0185-.1243-.0426-.1882-.0711h0c-.1968-.0879-.3918-.2201-.4618-.3799-.2175-.4968-.3944-1.0127-.5817-1.523,.012-.0574,.0336-.1092,.041-.1691Zm3.4809,2.5436c.0997-.218,.2051-.4208,.3159-.6108,.0044-.0075,.008-.0165,.0124-.024,.2503-.1747,.5087-.3401,.7602-.5085,.1484-.0994,.3076-.1842,.4728-.26h0c.2205-.1012,.4543-.1828,.6903-.2587,.0612-.0196,.122-.0398,.1836-.0585,.2099-.0639,.4211-.1252,.628-.1867,.1075-.032,.2222-.0469,.3379-.058,.046-.0038,.0918-.0084,.1387-.009,.0548-.0015,.1109,.0035,.1667,.0061,.1306,.0078,.2625,.0224,.3953,.0496h0c.5003,.1022,.9991,.3388,1.3912,.666h0c.1183,.0987,.2261,.2053,.3221,.3171,.0038,.0045,.0088,.0084,.0126,.013,.0979,.1159,.1819,.2381,.2476,.3658,.3368,.6546,.6925,1.2995,1.0241,1.9567,.5126,1.0161-.1161,2.5474-1.0531,2.7275-.9744,.1873-1.059-.6027-1.3579-1.1385-.2301-.4125-.3409-.8897-.5496-1.3164-.0525-.1073-.1131-.2031-.1792-.2894-.0266-.0349-.0577-.0617-.0862-.0931-.0416-.0456-.0821-.0929-.1274-.1312-.0423-.036-.088-.0629-.133-.0925-.035-.0227-.0688-.048-.1053-.0667-.0573-.0298-.1167-.0505-.177-.0705-.0258-.0084-.0509-.0187-.0771-.0252-.0712-.0183-.1436-.0271-.2172-.0316-.0155-.0008-.0307-.0027-.0463-.0029-.0825-.0018-.165,.0062-.2485,.0218-.0066,.0013-.0133,.0024-.0199,.0038-.0894,.0182-.1779,.0468-.2665,.0854-.0013,.0006-.0026,.0012-.0039,.0017-.1524,.067-.3028,.1548-.4442,.284-.0835,.0762-.1718,.1501-.2579,.2251h0c-.2746,.2393-.5554,.4765-.8269,.7199-.0274,.0244-.0551,.0485-.0822,.0732-.1402,.1279-.2723,.261-.4016,.396-.0453,.0471-.0937,.0921-.1372,.1404-.1599,.1781-.3088,.3631-.4356,.5619-.0907,.142-.1867,.2812-.283,.4201h0c-.0384,.0554-.0758,.1114-.1149,.1665-.2233,.3154-.4548,.6266-.6813,.9412-.0237,.0329-.0466,.0663-.0702,.0993-.0912,.1278-.1808,.2566-.2686,.3866-.0382,.0565-.0749,.1138-.1123,.1709-.0726,.1111-.1428,.2237-.2112,.3374-.0392,.0653-.0775,.1312-.115,.1976-.0629,.1112-.1216,.2249-.1788,.3396-.0341,.0685-.0689,.1366-.1007,.2065-.0566,.1242-.1062,.2525-.1545,.3817-.0236,.0633-.0503,.1248-.0717,.1894-.0648,.1954-.1212,.3959-.163,.6051-.1652,.8268-.5996,1.601-.9222,2.3949-.256,.6302-1.2448,1.0939-2.0247,.9637-.2512-.0419-.5198-.0989-.6963-.1507-.0212-.2139-.0374-.4259-.0497-.6368-.002-.0334-.004-.0669-.0057-.1001-.0343-.6806-.0116-1.3432,.1295-1.9755,.0516-.2315,.1156-.4598,.2021-.6825,.0028-.0071,.0068-.0133,.0096-.0204h0l.0006-.0013c.0505-.1274,.1091-.2495,.1732-.3677,.0326-.0599,.0701-.1162,.106-.1736,.038-.0609,.0762-.1216,.1178-.1797,.0459-.0639,.0945-.1254,.1447-.1857,.0353-.0426,.0719-.084,.1093-.1248,.0607-.0661,.1222-.1314,.188-.1925,.0216-.0202,.045-.0386,.0671-.0583,.3611-.3185,.7906-.5671,1.2717-.7305,.179-.0608,.3642-.1103,.5562-.1471h0c.0556-.0106,.1087-.0264,.1653-.035-.0109,.2027-.0518,.3865-.1098,.5603h0c-.0478,.1431-.1091,.2782-.1786,.4091-.003,.0057-.0062,.0113-.0092,.017-.1473,.2735-.3307,.5293-.5118,.795-.0796,.1163-.1586,.2341-.2333,.3573,.2559-.0362,.5115-.1638,.7542-.3378,.0018,.0039,.0009,.0083,.003,.012,.0342,.0602,.1035,.1013,.1729,.1019h.002c.0628,0,.116-.0319,.1499-.0894,.76-1.2871,1.3388-2.6019,1.8593-3.9566,0-.0002,.0002-.0004,.0003-.0007h0c.3246-.845,.6268-1.7053,.935-2.5846,.0883-.2517,.1827-.4853,.2827-.7046Zm5.1186-13.536c.1298-.0635,.2599-.1268,.4-.2,.2799,.9672,.5203,1.798,.7546,2.6077-.0398,.1353-.0983,.26-.1667,.3793-.0289,.0503-.0648,.0968-.0976,.1449-.044,.0647-.0867,.13-.1362,.1916-.0572,.0709-.1177,.14-.1798,.2083-.0264,.0292-.0519,.0589-.079,.0879-.1253,.1335-.253,.2665-.3782,.4016-.0002,.0002-.0003,.0004-.0005,.0005h0c-.319,.3441-.6073,.711-.6957,1.202-.0726,.4033-.1205,.8882-.0487,1.2926,.0651,.3666,.2521,.6698,.3993,.9973-.0705,.0631-.152,.1216-.2477,.1724-.446,.2365-.836,.0626-.8889-.4508-.0964-.936-.3331-1.9354-.1091-2.8047,.2336-.9064,.3767-1.6457-.119-2.4876-.1297-.2203-.0098-.7985,.1954-.9624,.3802-.3038,.846-.5105,1.398-.7806h0Zm5.1061,6.7168h0c.091-.0134,.1828-.022,.2737-.0363,.4578-.0719,.9627-.2168,1.3104-.497,.1032-.0831,.1694-.2123,.2259-.3534,.0596-.0465,.106-.1099,.1608-.1626h0c.2132-.2047,.3996-.4438,.5215-.7574,.03-.0772-.0194-.1712-.0845-.2107-.1445-.0873-.2773-.1815-.3989-.2826h0c-.1223-.1016-.2334-.2102-.3338-.3259-.0122-.1777-.0308-.3312-.0905-.4625-.3182-.7001-.2812-1.5988,.1568-2.1525,.065-.0515,.1176-.1221,.1808-.1878,.0016-.0016,.0254-.0165,.0513-.0323,.0056-.0034,.0118-.007,.0181-.0108,.034-.0201,.0754-.0435,.1158-.0633,.027-.0132,.0534-.0249,.0754-.0321,.2673,.3003,.5257,.6084,.7914,.9104,.3006,.3417,.6167,.6557,.9687,.9446,.3129,.2567,.8645,.5765,.8635,1.025-.0004,.1842,.0447,.3369,.1068,.4752-.0031,.0351-.0107,.0686-.0107,.1048v.4628c0,.0296,.0064,.0585,.0088,.0879-.2023,1.1153-1.0553,2.0844-2.1397,2.3242-.2863,.0633-.5747,.1173-.8625,.1743-.6688,.1324-1.3396,.2555-2.0121,.3671-.0476,.0079-.0923,.0207-.1394,.0295h0c-1.254,.2331-2.3364,.7691-3.2489,1.5746-.0142,.0124-.0273,.0266-.0414,.0391-.1306,.1171-.2593,.237-.3829,.365-.14,.1444-.2757,.2956-.4067,.4541-.0739,.0895-.1506,.1621-.2283,.2287-.0733,.061-.1481,.1136-.224,.1596h0c-.0262,.0159-.0515,.0379-.078,.0521-.435-.1909-.8939-.3181-1.3678-.359,.0036-.0076,.0058-.0154,.0082-.0227,.0017-.0053,.0033-.0105,.005-.0148,.003-.0056,.0062-.0108,.0098-.0161,.0092-.0141,.0197-.0302,.0201-.055,.002-.2011,.0279-.4223,.0789-.6762,.0489-.0529,.0647-.1167,.044-.1762,.0655-.2629,.1626-.5159,.2759-.7605,.2761-.3289,.594-.6473,.9141-.919h0c.1112-.0944,.2224-.1815,.3325-.2625,.0193-.0142,.0384-.0275,.0577-.0412,.0895-.0641,.1774-.1215,.2639-.174,.0276-.0167,.0553-.0338,.0825-.0492,.0789-.0449,.1547-.0817,.2288-.1145,.0266-.0118,.0545-.0263,.0804-.0364,.0955-.0373,.187-.0653,.2703-.0772,1.1805-.1685,2.369-.2832,3.5483-.4574Zm5.7227,5.3259h0c.2188,.1585,.4198,.3438,.6124,.5395,.1651,.1741,.3211,.3572,.4732,.5428,.2025,.2472,.3951,.5012,.5669,.7658,.1898,.2923,.3701,.5907,.5457,.8921,.0733,.1258,.1436,.2535,.2153,.3803,.1065,.1882,.2141,.3757,.3188,.565,.1352,.2442,.2697,.4888,.4055,.7327h0s.0001,.0002,.0002,.0003c.1762,.3164,.3544,.6316,.5394,.9426,.3211,.5395,.8798,.6694,1.4731,.6137,.1391-.013,.3246-.0938,.3836-.2012,.0398-.0724-.1197-.2414-.1635-.3758-.0417-.128-.1102-.2719-.159-.408,.4859-.3803,.8599-1.2173,.9707-1.8303,.0266-.1468,.0449-.2941,.0574-.4415,.008-.0901,.0094-.1801,.0124-.2702,.0014-.0507,.0048-.1013,.0046-.152,.0003-.1197-.0054-.2388-.0137-.3579-.0011-.0157-.0018-.0314-.0031-.0471-.0679-.863-.3531-1.7033-.8355-2.4334,.4838,.3413,.976,.6769,1.2919,1.1342,.0587,.0849,.1094,.1756,.1652,.2626,.4158,.6485,.7608,1.3468,1.0876,2.0545h0c.0837,.1812,.1672,.3627,.2503,.5437-.12,.5688-.0515,1.3006,.0005,1.7774,.0043,.0409,.008,.076,.0119,.1123h0c.002,.0186,.0043,.0402,.0061,.0576,.0575,.5667,.1726,1.0339,.3517,1.428-.0666,.2126-.1541,.4223-.2508,.6301-.0727-.4451-.1937-.8868-.4375-1.3399-.2107,.4925-.3404,1.0447-.6497,1.4646-.5589,.7588-1.1517,1.5321-1.8825,2.1053-.2921,.2291-1.0865,.1062-1.4813-.1356-1.4266-.8738-1.9212-2.3633-2.2287-3.9029-.0297-.1487-.0618-.2966-.097-.4429-.2495-1.0393-.6558-2.0043-1.5056-2.673-.1769-.1392-.3679-.2605-.565-.3741h0s-.0001,0-.0002,0c-.2479-.1429-.5077-.2707-.7712-.3939-.2735-.1287-.5502-.2535-.8208-.386-.0759-.196-.1754-.3825-.2827-.5627-.022-.0368-.0429-.0721-.0658-.1081-.1845-.2901-.3942-.5537-.6041-.7638,.0223-.0105,.0457-.024,.0628-.0519,.0542-.0883,.1183-.1568,.1789-.2321,.094-.0368,.1881-.0782,.2821-.1188h0c.0303-.0131,.0607-.0253,.0909-.0383,.019,.0068,.0299,.023,.0549,.0215,.5482-.0321,1.1155-.0733,1.6486,.0887,.1393,.0424,.2706,.0975,.3956,.1625,.0105,.0055,.0198,.013,.0302,.0186,.1141,.0614,.2242,.129,.3289,.2049Zm6.7686-7.2603c.1751,.0229,.3623,.0505,.5544,.0817,.0045,.0007,.009,.0015,.0134,.0022,.192,.0314,.3889,.0663,.5839,.1042,.5983,.1164,1.1676,.2588,1.4681,.4077,.6889,.3412,1.5858,.9061,1.6998,1.7403,.1529,1.1194-.9944,2.3737-1.8825,1.9965-.1615-.4506-.2012-.9088-.0967-1.3876,.025-.1141,.0555-.2041,.0828-.2837,.0713-.2085,.114-.3343-.0609-.5737-.4173-.5719-1.2918-1.0091-2.0525-1.0802-.0167-.0017-.0332-.0042-.0498-.0056-.1392-.0101-.2754-.0118-.4023,.0052-.2034,.0281-.4189,.0753-.637,.1342,0,0-.0001,0-.0002,0h0c-.5597,.1511-1.1382,.4011-1.5849,.7671-.6823,.1889-1.0457,.6497-.9894,1.2927,.0419,.4782,.1125,.9554,.1974,1.4306h0s0,.0001,0,.0002c.1057,.5918,.2351,1.1806,.3773,1.763,.2762,1.1304,.7319,2.221,.9495,3.3596,.0117,.0611,.0053,.128,.0077,.1923h0c.0128,.3388-.0877,.7126-.2256,1.055-.0474,.1148-.0974,.2279-.1491,.3328-.0923,.187-.2377,.2908-.4095,.2761-.0715-.0963-.1357-.2025-.1944-.3077-.0534-.096-.1023-.192-.1461-.2797h0c-.0068-.0137-.0158-.03-.0224-.0433-.0384-.0776-.0719-.1447-.1023-.1996-.1382-.2487-.3006-.5395-.4751-.8493h0c-.0005-.0009-.0011-.0019-.0016-.0028-.1587-.2816-.3274-.5785-.4996-.8768-.0434-.075-.0862-.1447-.1292-.2168-.11-.5414-.1681-1.1-.1984-1.6735-.036-.6827-.1917-1.3764-.4045-2.0288-.4346-1.333-.3933-2.4788,.3458-3.8016,.0362-.0648,.0771-.1192,.1161-.1777,.5133-.3813,1.0909-.6661,1.704-.9006,.607-.2323,1.2025-.3143,1.8095-.3297,.1802,.005,.4698,.0335,.8039,.0771Zm-1.5357,5.7626l2.0804-4.3138c.2571,.0553,.5112,.1442,.7789,.3002l.0572,.0332c.2725,.1571,.646,.3725,.7051,.641,.0319,.1453-.0289,.3491-.0881,.5463-.0437,.1466-.089,.2989-.0953,.4254-.036,.7385,.2417,1.4584,.8383,2.1846l-2.1101,2.0198c-.5491-.8542-1.2648-1.5842-2.1665-1.8368Zm.6575,4.2611c-.0025,.0429-.0032,.0857-.0068,.1286-.0054,.0661-.0152,.1309-.0234,.1962-.0092,.0721-.0185,.1439-.0312,.2143-.0102,.0567-.0228,.1118-.0354,.1671-.0177,.0769-.038,.1518-.0607,.2249-.0148,.0478-.0302,.0952-.0473,.141-.0295,.0785-.0642,.1521-.1008,.2236-.0179,.035-.0338,.0719-.0535,.1049-.0601,.1007-.1268,.1942-.2049,.2736-.0358,.0364-.0703,.0521-.1056,.082,.0849-.2053,.1539-.4093,.2093-.6121,.0078-.0289,.0108-.0574,.0181-.0863,.0445-.1754,.0822-.3503,.1062-.5241,.0018-.0133,.0015-.0264,.0032-.0397,.1495-1.1583-.1383-2.2826-.6826-3.3966-.0525-.1074-.0956-.2193-.137-.3321h0c-.033-.0901-.065-.1808-.0997-.2701,.0321-.0292,.0644-.0585,.0965-.0878,.039,.045,.0706,.0947,.1078,.1409h0c.4705,.5835,.8045,1.2562,.9545,1.996,.0299,.1477,.0527,.3185,.0714,.4968h0c.0312,.2986,.0408,.6295,.022,.9589Zm-1.8922-6.819c.1559-.6765,.7096-1.1956,1.6406-1.5486l-1.6858,2.4756c-.0259-.3139-.023-.6306,.0452-.927Zm4.5532,8.7977c.0014,.0081,.0028,.0162,.004,.0243-.0013-.0001-.0024-.0009-.0036-.0014-.0002-.0073-.0002-.0156-.0004-.0229Zm2.6467,1.2849h0c.358,.3692,.6801,.8094,.7831,1.2663-.2762,.4427-.5757,.8717-.8534,1.3139h0c-.0341,.0543-.0709,.1069-.1042,.1616-.0555,.0914-.0883,.1967-.115,.3056-.0522-.3913-.125-.7515-.2054-1.0265-.019-.0645-.0713-.1164-.1302-.1292-.4133-.0896-.757-.2511-1.0389-.4828h0c-.102-.0838-.194-.1791-.2796-.2819-.0173-.0209-.0333-.0435-.05-.0652-.0658-.0852-.1262-.177-.1817-.2747-.0188-.0332-.0376-.0665-.0553-.1013-.0492-.0963-.0927-.1998-.1328-.3074-.0144-.0387-.0306-.0751-.0438-.1153-.0489-.1478-.0917-.3034-.1252-.4716,.4024-.0242,.9445-.4329,1.2334-.5358,.1001-.0356,.2015-.0637,.3026-.0938,.2471,.1727,.6396,.4702,.9965,.8381Zm.8901,14.7771c.0172,.0298,.0374,.0527,.0555,.0805l-2.1216-.6185c.0693-.2619,.1407-.5237,.1979-.7867l1.525-.1134c.0001,.0091-.0014,.0181-.0013,.0272,.0105,.5595,.1265,1.0342,.3445,1.4109Zm.5761,2.6913c-.1262,.1659-.2803,.3096-.463,.4127-.4898,.2749-1.0362,.2111-1.5-.1782-.1868-.1565-.3178-.354-.4315-.5602l2.3945,.3257Zm-6.9748-10.5257c-.4199-.4876-.3853-1.2488-.0531-1.9107,.2434-.1434,.4816-.3072,.7043-.5009,.1193-.1039,.2343-.2228,.3516-.3353,.3546,.505,.7105,1.0119,1.0667,1.5193,.0426-.0411,.0851-.082,.1276-.123-.1132-.7675-.21-1.5381-.3454-2.3015,.0265-.0319,.0567-.0614,.0826-.0935,.0447,.5534,.1488,1.1559,.3174,1.6973,.0032,.0104,.0059,.0213,.0092,.0317,.0232,.0731,.0495,.1424,.0752,.2128,.0214,.059,.0427,.1177,.0659,.1744,.0237,.0576,.0489,.1125,.0744,.1674,.0302,.0653,.0618,.1282,.0947,.1892,.0246,.0455,.0494,.0901,.0755,.1329,.0407,.0667,.0841,.1279,.1285,.1874,.0232,.031,.0453,.0641,.0695,.0929,.071,.0845,.1455,.1618,.2257,.2254-.1381-.0527-.2856-.1143-.4593-.1964-.0636,.0427-.1271,.0855-.1907,.1282,.1815,.2274,.3311,.4946,.5527,.6717,.2491,.1991,.5631,.3169,.9062,.5009-1.6423,1.2308-2.8515,.7228-3.8791-.4702Zm.2735,20.0213c-.0349,.0438-.0703,.0871-.1069,.1299-.0675,.0792-.1384,.156-.2106,.2318-.1256,.131-.2549,.259-.3885,.3814-.1811,.1659-.3646,.3269-.5451,.4786l-.1203,.1013c-.1457,.1229-.2896,.2491-.4422,.382-.0761,.0666-.1552,.1314-.2323,.1979h0c-.1362,.1174-.2713,.236-.4104,.3495-.0975,.0642-.1937,.1308-.2972,.1831-.0641,.0325-.1355,.061-.2112,.0861-.032,.0106-.0673,.0182-.101,.0274-.0447,.0124-.0885,.0254-.1354,.0353-.0512,.0106-.1045,.0179-.1575,.0255-.0305,.0044-.0603,.01-.0911,.0134-.0677,.0073-.1361,.0113-.2045,.0135-.0158,.0006-.0316,.0019-.0473,.0022-.0795,.0012-.1588-.0009-.2364-.0068-.0036-.0002-.0072-.0004-.0109-.0006-.2492-.0199-.4814-.0772-.6536-.1763h0c-.0319-.0184-.0675-.0341-.095-.0554-.1903-.1476-.2722-.3268-.2964-.5195-.043-.3426,.1179-.7326,.2955-1.09,.003-.0059,.0059-.0119,.0089-.0179,.0573-.1147,.1161-.2264,.17-.3314,.2421-.4712,.6528-.8554,.9867-1.2797,.0261-.0331,.0527-.0673,.0793-.1015,.1624-.1564,.3303-.3118,.4992-.468h0c.0326-.0301,.0634-.06,.0962-.0902,.0723-.0663,.1447-.1328,.2169-.1999,.0551,.0735,.1175,.1351,.1792,.198,.6317,.9287,1.6462,1.1079,2.7437,1.1038-.0831,.1376-.1804,.2683-.2819,.3964Zm-1.0948-15.7768c-.1099,.0212-.2197,.0423-.3296,.0635,0,.835,.082,1.6805-.0228,2.5022-.1073,.8414-.3208,1.6889-.6247,2.4812-.5184,1.3523-1.1896,2.6461-1.705,3.9993-.2614,.6861-.3979,1.4426-.4551,2.1778-.0685,.8836-.871,1.7689-1.7642,1.8225-.1855,.0112-.358,.1956-.5415,.2904-.8753,.4515-1.7127,1.1163-2.6402,1.2858-.8679,.1586-1.8875-.0609-2.74-.3812-1.1876-.4462-2.2765-.4144-3.4131,.0405-.8122,.325-1.4817-.0555-2.0608-.5484-1.0709-.9114-2.0912-1.882-3.1462-2.8123-.1455-.1282-.3038-.2459-.468-.3537-.4346-.3406-.8723-.9823-1.0697-1.2935-.0278-.0653-.0677-.1284-.1087-.1768,0,0-.8901-2.1213-1.054-2.9561,.0052-.0026-.0747-.4836-.0852-.4945,.0775-.7665,.2064-1.2996,.1598-1.817-.0369-.4108-.2137-.8577-.4604-1.1909-.5214-.7043-.3464-1.3992-.1233-2.116,.19-.6105,.3955-1.2162,.6008-1.8441-.5939-.4595-1.0084-.0649-1.1373,.3712-.4313,1.4594-.7553,2.9505-1.0917,4.3133-.0302-.0778-.0774-.1991-.1328-.342,.1743-.7834,.2353-1.5599,.1878-2.2648-.0012-.0188-.0028-.0372-.0042-.056-.0116-.1526-.012-.3134-.0348-.457-.1361-.8534-.6358-2.02-1.215-2.838-.05-.0704-.1116-.1342-.1687-.2005,1.0107-.5909,2.6125-1.0804,2.9978-.7874,.1748-.3361,.3441-.6616,.5134-.9871,.0888,.0366,.1774,.0732,.2662,.1097-.2435,.6112-.487,1.2223-.7305,1.8336,.0592,.0504,.1183,.1007,.1775,.1511,.1648-.1191,.4181-.2042,.4793-.3631,.2789-.7259,.4965-1.4752,.7532-2.2102,.0685-.196,.1974-.3707,.2975-.5557,.3289-.6082,.6574-1.2167,.9942-1.8403,.178,.099,.4454,.2477,.6769,.3764-.5263,.8129-1.0256,1.5843-1.525,2.3556,.0717,.0577,.1433,.1154,.2149,.1732,.4091-.4289,.8631-.824,1.2177-1.2942,.6793-.9004,.7105-.9256,1.7641-.1681-.4613,.2509-.9049,.4613-1.315,.7239-.4139,.265-.7947,.5819-1.3786,1.0164,1.1464-.1112,1.872-1.6693,2.9631-.3008-.2275,.1402-.4376,.2697-.7699,.4744,.6462,.1798,1.1888,.3308,1.6063,.447-.8813,.3516-1.853,.7441-2.83,1.1229-.1119,.0435-.301,.0668-.3724,.0049-.365-.3161-.712-.2763-.9771,.0751-.2809,.3724-.6536,.7601-.3346,1.3008,.1476,.2502,.3082,.4928,.4533,.7444,.3184,.5521,.6505,.4476,1.0035,.0351,.3659-.4275,.5933-.9365,1.3935-.4235,.3119,.2,1.3906,.354,1.6872-.6702,.0635-.2192,.6149-.2971,.9415-.4401,.0457,.0846,.0915,.1691,.1372,.2537-.477,.4461-.954,.8923-1.5234,1.4248h.8052c-.2565,.3066-.452,.5402-.6473,.7737,.0364,.0604,.0729,.1209,.1095,.1813,.3921-.208,.8559-.3416,1.1633-.6376,1.0805-1.0402,1.8193-2.2601,1.6603-3.8483-.0673-.6722,.0527-1.103,.6323-1.3135,.2262-.0012,.452-.0114,.6773-.0403,1.2771-.165,2.4425-.7735,3.3699-1.76,.8395-.8929,1.4704-2.0661,1.8238-3.3926,.1782-.6683,.3021-1.3984,.3784-2.2308,.5577,.1336,.9966,.452,1.3665,.8594,.3537,.7429,.6715,1.5059,.9215,2.2861,.4302,1.3422,1.0708,2.4194,2.1988,2.9679,.2104,.2051,.4443,.3807,.7132,.5074,.3951,.187,.8344,.2313,1.3025,.1513,.0459,.0821,.0816,.1805,.0933,.3241,.1151,1.4188,.6875,2.6778,1.4845,3.8451,.0192,.0282,.0342,.0579,.0502,.0872,.0165,.8365-.0667,1.616-.2367,2.3198-.1363,.1894-.2726,.3783-.4113,.5705-.1965-.4804-.3923-.9592-.588-1.4379Zm-8.7041,22.5339c-.1517,.0312-.3102,.0371-.4624,.0248-.0112-.0011-.0226-.0006-.0336-.0019-.154-.0158-.301-.0518-.4244-.1105-.4424-.2117-.8284-.626-1.1171-1.1966,.3768-.4951,.6447-1.1085,.8186-1.8725,.0648,.1628,.1359,.333,.2099,.5055,.0162,.0376,.032,.0741,.0487,.112,.159,.3627,.3402,.734,.5466,1.0918,.015,.026,.0298,.0517,.0451,.0775,.1077,.1822,.2209,.3599,.3429,.5286,0,0,0,.0001,.0001,.0002h0c.1618,.2237,.3356,.4335,.5246,.6182-.1349,.1214-.313,.1847-.499,.223Zm-2.1207-1.8602c-.0018,.003-.0036,.006-.0054,.0091-.0951,.1604-.2012,.3135-.3206,.4567-.3546,.4255-.8188,.7669-1.4488,.9458-.1916,.0546-.3871,.0852-.5839,.1066h0c-.2151,.0234-.4324,.0303-.6496,.03-.022-.0002-.0439,.0002-.0659,0-.2125-.0018-.425-.01-.6352-.0202-.267-.0123-.5383-.0249-.808-.0226-.029-.0283-.0561-.0596-.0843-.0892h0c-.0826-.0868-.1639-.1756-.2471-.2613,.0885-.0575,.1747-.122,.2611-.1859,.062-.0459,.1249-.0888,.1882-.1306,.0231-.0152,.0461-.0306,.0696-.0447,.0769-.0463,.1555-.0876,.2386-.1149,.4437-.1455,.914-.2141,1.3764-.2966,.1232-.022,.2346-.0562,.3396-.097,.0934-.0339,.1788-.076,.2613-.121,0,0,.0001,0,.0002,0h0c.7423-.405,1.0815-1.2225,1.5157-1.9066,.2233-.3518,.3625-.7127,.7826-.5703,.1942,.0659,.2939,.4611,.398,.7231-.0371,.1784-.0821,.3567-.1343,.5327-.0069,.0235-.0158,.0464-.023,.0698-.0494,.1591-.1041,.3166-.1682,.4698-.0054,.013-.0116,.0256-.0171,.0386-.0707,.1647-.1496,.3253-.2399,.4787Zm-2.2337,4.1303c-.2768,.12-.489,.2443-.6676,.3873l.1745-.9648c.1564,.1978,.319,.3917,.493,.5775Zm-3.1908-6.6043c-.0595-.0844-.1285-.1582-.2033-.2259-.0223-.0202-.0476-.0376-.0713-.0563-.0569-.045-.1172-.0865-.1822-.1232-.0309-.0174-.0627-.0341-.0955-.0497-.0684-.0325-.1416-.0603-.2182-.0849-.0331-.0106-.0647-.0228-.0993-.032-.1131-.0298-.2323-.0541-.3623-.0685-.1304-.0146-.2599-.0198-.3884-.0167-.0907-.0365-.184-.0654-.2787-.0896-.0395-.0103-.08-.0169-.1202-.0249-.0542-.0105-.1088-.0196-.1643-.0257-.0521-.006-.1046-.0102-.1579-.012-.0447-.0014-.0902,.0004-.1358,.002-.0598,.0019-.1191,.0026-.1804,.01h0c-.1057,.0128-.2128,.0306-.3233,.0612-.8211,.2271-1.5806,.7785-2.2852,1.2969-.1478,.1087-.297,.2047-.4474,.2948-.0041,.0012-.0083,.003-.0125,.0043-.5946,.1802-1.1643,.2952-1.6936,.3419-.0371,.0033-.0838,.0092-.1357,.0158-.0733,.0091-.1567,.0184-.2373,.0244-.116,.0086-.2251,.0094-.2825-.0158l-.4685-.6785c.0072-.2735,.096-.5135,.264-.714,.3586-.5205,.9446-.7148,1.5571-.8122,.2572-.0409,.5186-.0666,.7707-.0891,.2094-.0184,.4066-.0362,.5953-.0625,.5207-.0723,.9806-.2255,1.3925-.4683,.44-.1476,.7794-.4273,.9786-.8608,.2099-.2546,.4058-.5489,.5896-.8825,.0749-.0105,.1554,.0018,.2368,.0229,.0156,.0042,.0308,.0056,.0466,.0108,.0874,.0286,.1762,.0707,.2634,.1298,.794,.5377,1.5657,1.1082,2.3403,1.6746,.032,.0234,.0641,.0467,.0961,.0701h0c.1886,.1377,.3765,.2765,.5661,.4128,.129,.0927,.3064,.1274,.4161,.2352,.1871,.1838,.4584,.3831,.5948,.5809-.0981,.2301-.2327,.4357-.4178,.5875-.1054,.0867-.2283,.1598-.3622,.2223-.0132,.0064-.0278,.0113-.0413,.0174-.1322,.0583-.2736,.1077-.425,.1444h0c-.1894,.046-.3881,.0796-.601,.0866-.0547-.3462-.1592-.6291-.3166-.853h0s-.0003-.0003-.0004-.0004Zm-7.0297-3.0332c-.1409-.0356-.2796-.0768-.4065-.1402,.8826-1.9075,1.6755-2.7975,2.3367-2.6655,.3288,.3622,.9071,.981,1.3609,1.3776-.0597,.1332-.1427,.2577-.2347,.3774-.0189,.0244-.0363,.0495-.0564,.0732-.0883,.1052-.1895,.2032-.2985,.2953-.0406,.034-.0832,.0663-.1262,.0983-.0817,.0614-.1686,.1176-.2579,.1715-.0945,.0562-.192,.108-.2932,.1552-.0512,.0242-.1027,.0472-.1552,.069-.1833,.075-.3731,.1372-.5663,.1806-.3971,.0893-.8014,.1106-1.1752,.0392h0c-.0435-.0083-.0849-.0214-.1276-.0317Zm7.8379,7.399l-.1261,4.1351c-.6444,.1239-1.4174,.0937-1.8303-.2647-.2583-.2242-.4004-.5003-.4217-.8198-.05-.7456,.5529-1.5175,.8146-1.8147,.3034-.3445,.5343-.7193,.7058-1.1447,.2709-.0713,.5617-.0916,.8578-.0912Zm-10.7255-12.9697c-.0147,.0028-.0291,.0062-.0439,.0086-.1348,.0205-.2737,.026-.4036,.0108-.0611-.0072-.1226-.0139-.178-.0297-.1-.0286-.1722-.2715-.2044-.5056-.0129-.0938-.02-.1862-.0188-.2629,.0133-.9029,.3173-1.6905,.7439-2.4269,.1342-.1716,.2721-.3396,.411-.5035,.3973-.4699,.8008-.9585,1.0493-1.5525,.0999-.1289,.2016-.2601,.3143-.4069,.5767,1.0072,.9381,1.7792,.2649,2.7411-.4332,.6189-.6379,1.3941-.9826,2.0803-.1393,.2774-.3309,.5959-.5858,.7295-.1079,.0565-.2353,.0938-.3662,.1177Zm6.2689-20.6574c.191-.5325,.5426-1.0285,.9079-1.4729,.6114-.7436,1.6771-.4944,2.2383,.5685,.3514,.6656,.7176,1.2824,1.5468,1.1036,.1908-.0412,.3739-.0887,.5524-.1429,.5426,.0169,1.344-.072,1.5786-.714,.1384-.3791,.1941-.8452,.1932-1.3218,.0961-.5852-.0153-1.1086-.2152-1.5916-.0317-.1103-.0653-.2169-.1022-.3141-.1128-.2969-.2844-.5519-.4687-.8006-.0134-.0235-.027-.0473-.0402-.0704-.6426-1.1341-.3391-2.0512,.4089-2.517,.1184-.0527,.2434-.0976,.3734-.1324,.5-.1333,1.0513-.1247,1.6034-.0363h0c.1564,.025,.3128,.0557,.4681,.0917,.1698,.0423,.3397,.0858,.5055,.142,.1875,.1045,.3552,.2339,.511,.376,.0234,.0212,.0479,.0411,.0705,.063,.1479,.1444,.2798,.3055,.395,.4818,.0146,.0222,.0282,.0453,.0422,.0679,.2397,.3892,.4038,.8446,.4749,1.3541h0c.0258,.1848,.0436,.3742,.0451,.5718,.0029,.3749-.037,.7253-.0951,1.0653h0c-.146,.8557-.4724,1.6092-.9113,2.3032-.0237,.0372-.0463,.0751-.0707,.112-.0895,.1364-.1845,.27-.2824,.4021-.0469,.0629-.0943,.1254-.1428,.1874-.0874,.1122-.1763,.2237-.2689,.3333-.0765,.0902-.1554,.1791-.2349,.2678-.0737,.0826-.1461,.1658-.2222,.2473-.1614,.1722-.3261,.3429-.4959,.5116-.4507,.448-.9168,.9071-1.4519,1.2382-1.6013,.9907-3.2423,.73-4.8397-.0299-.6844-.3255-1.3749-.6945-1.941-1.1842-.2245-.1942-.2549-.8186-.1323-1.1606Zm23.8384,1.0994c.0628,.0903,.13,.1722,.2003,.2477,.0935,.1035,.191,.1984,.2955,.2766,.1512,.1134,.3304,.1785,.5033,.2416,.1641,.0595,.3189,.1161,.4491,.2094,.1452,.1041,.2392,.3176,.2974,.5856h0c.0519,.239,.073,.5242,.0729,.8209,0,.0258-.0006,.0519-.001,.0779-.0016,.1171-.0068,.2353-.0146,.3534-.0023,.0341-.004,.0682-.0068,.1021-.0114,.1419-.0259,.2829-.0447,.4181-.0652,.2653-.1381,.5275-.2415,.777-.0413,.0995-.0804,.1853-.1192,.2673-.0355,.0743-.0704,.1428-.1049,.2074-.0141,.0264-.0285,.0569-.0425,.0818-.135,.1083-.2965,.1832-.475,.2043-.0049,.0006-.0094-.0005-.0143,0h0c-.1518,.0162-.2984-.0034-.4315-.0553-.0064-.0025-.0118-.0071-.0182-.0097-.0594-.0248-.1169-.0541-.17-.0916-.0591-.0419-.1139-.0912-.1632-.1479-.2041-.2341-.3222-.6292-.4169-.9468-.018-.0598-.0352-.1177-.0523-.1719-.0556-.1763-.1037-.346-.1452-.5112-.0413-.1648-.0758-.3248-.1039-.4812h0c-.0581-.324-.0884-.633-.0917-.938,.1835-.2569,.3456-.5146,.487-.7716,.1381-.25,.2558-.4992,.3519-.7461Zm-11.068-8.4187c-.4449,.1614-.8134,.4538-1.0706,.8721-.0821-.07-.1532-.1282-.2259-.1808-.1153-.0829-.2423-.1609-.3691-.2387l.0463-1.5187c.0618-.0131,.1249-.0192,.1853-.0358,.55-.1516,1.122-.36,1.7492-.6374,.1796-.0796,.3419-.158,.4931-.2366l-.8085,1.9759Zm-9.9298-1.1368c-.0525,.2689-.0791,.5049-.0811,.7216-.0004,.0355,.0154,.0588,.0296,.0793l.0065,.0098c.0004,.001,.001,.0026,.0013,.0046-.016-.0002-.032-.0003-.048-.0004l-.6727-1.6439c.2034,.3314,.4498,.6265,.7643,.829Zm21.2643,36.9738l-.1365-.1764c.2207-.3305,.4309-.6579,.63-.9769-.0177,.1912-.0841,.4049-.2015,.6515-.0831,.1742-.1837,.3405-.292,.5017Zm19.0343-24.1424l-13.889,1.8894c.1219-.8205,.0636-1.6984-.1804-2.6531-.0034-.0134-.009-.027-.0125-.0404l11.7575-6.3184c1.0093,2.2626,1.796,4.6446,2.3243,7.1226Zm-2.3476-7.1741l-12.418,4.4577c-.0209-.0463-.036-.0932-.0575-.1394-.0529-.1141-.1196-.2289-.1841-.3399-.089-.1532-.1814-.3116-.2393-.4711-.0753-.2085-.0641-.41-.0523-.6236,.0072-.1272,.0144-.259,.0026-.3948-.0282-.3258-.131-.6341-.3008-.9289l9.4963-8.0402c1.4647,2.0137,2.7242,4.1837,3.753,6.4803Zm-3.7866-6.5275l-10.894,6.7405c-.0905-.0557-.1778-.1118-.2755-.1664-.0716-.0401-.1554-.0897-.2439-.1426-.5871-.3495-1.4727-.8781-2.0119-.4987-.0069,.0049-.0125,.0115-.0174,.0174-.0456-.1346-.0975-.2781-.1523-.4248l2.2539-2.9112c.5774,.5222,1.299,1.1042,1.9228,1.1917,.0474,.0066,.093,.0098,.1377,.0098,.4326,0,.7423-.3116,.9208-.928,.3208-1.1082,.4586-2.2469,.3879-3.2059-.0288-.3908-.107-.7197-.2102-1.0234-.001-.003-.0021-.006-.0031-.009-.0088-.0258-.0186-.0507-.0269-.077l3.2031-4.1373c1.8555,1.6749,3.5325,3.5419,5.0089,5.5649Zm-5.0527-5.6028l-3.5845,3.4311c-.1516-.1678-.3201-.3128-.4957-.4597-.1532-.1282-.3113-.2604-.4608-.4143-.2055-.2107-.3797-.4556-.5487-.6923-.1897-.2666-.3863-.5421-.6309-.7771-.4799-.4612-1.0292-.8261-1.6328-1.0839-.2319-.0991-.4698-.1785-.7101-.2444l2.0075-4.1627c2.1705,1.2603,4.2013,2.7345,6.0559,4.4033Zm-6.1058-4.432l-2.745,4.0311c-1.3453-.1967-2.6728-.0074-3.4686,.1632-.9574,.205-1.8516,.5631-2.6471,1.0175l2.0229-8.2689c2.3996,.7837,4.6874,1.8132,6.8378,3.0573Zm-6.8905-3.0751l-3.4742,8.4905c-.0366-.0783-.0721-.1575-.1106-.234-.1253-.2492-.2436-.4846-.2768-.7265-.0223-.1614-.0013-.3251,.021-.4987,.0224-.1728,.0454-.352,.0218-.5296-.0299-.2199-.0904-.4405-.1844-.6735-.2285-.5661-.6266-1.1029-1.2528-1.6891-.0543-.0506-.1141-.1082-.1795-.1706-.5165-.4942-1.322-1.2602-2.0186-1.4154l.1255-4.1148c2.53,.2659,4.9804,.7989,7.3287,1.5618Zm-11.1302-1.7632c1.2652,0,2.515,.0669,3.747,.1944l-.7658,4.2336c-.472,.321-.5928,1.1184-.6814,1.73-.0175,.1197-.0338,.2325-.0513,.3287-.1382,.7585-.2419,1.6449-.0847,2.4599l-.5692,3.1464c-.1749,.026-.3516,.0456-.5273,.0617-.3702,.0342-.7561,.0283-1.1654,.0214-.4917-.0076-.9932-.0077-1.471,.0601l-.4987-2.7569c.017-.0247,.0392-.0439,.0545-.0703,.3534-.6095,.4859-1.3958,.4053-2.4034-.0536-.6743-.1824-1.412-.3833-2.193-.1033-.4017-.2778-.8787-.7154-1.003-.1309-.0373-.2611-.0376-.3893-.014l-.6514-3.6014c1.2322-.1276,2.482-.1945,3.7473-.1945Zm-3.8019,.2015l.1176,3.8561c-.1475,.0967-.2883,.2052-.4177,.307-.0588,.0461-.1153,.0907-.1696,.1315-.6316,.4757-1.2913,.9961-1.8074,1.6657-.5407,.7025-.7919,1.4146-.7465,2.1165,.0108,.1702,.0345,.3359,.0575,.4957,.0371,.259,.072,.5036,.0592,.7705-.0273,.5569-.0526,1.1016-.0622,1.6457-.0108,.613,.0585,1.1641,.2033,1.7242l-4.5628-11.1509c2.3482-.7629,4.7987-1.2958,7.3287-1.5618Zm-7.3814,1.5798l3.7822,15.4605c-.3994,.2658-.7554,.6048-1.0521,1.0093-.0771,.1051-.1445,.2157-.2125,.3258l-.3409-.5006c.2105-1.0482,.3793-2.1211,.1346-3.1705-.2167-.9294-1.0635-1.6693-1.5494-2.0277-.4984-.3679-1.0816-.5177-1.6457-.663-.4095-.1056-.8284-.2194-1.2112-.4117l-4.7427-6.9648c2.1503-1.244,4.438-2.2736,6.8376-3.0573Zm-6.8875,3.086l3.0823,6.3913c-.3622,.004-.7415,.0761-1.1532,.2233-.7439,.2657-1.7926,.6865-2.3097,1.2716-.1824,.2065-.2491,.4306-.1979,.6657,.1696,.7775,1.5789,1.5083,2.4037,1.8748,.5503,.244,1.0391,.3567,1.4895,.3379,.192-.0072,.3935-.0726,.5884-.1357,.3811-.123,.7403-.24,1.0592,.0194,.1509,.1225,.2669,.2487,.355,.3775l.1687,.3498c.2354,.7814-.389,1.6256-.9172,2.3382-.1259,.1699-.2448,.3304-.3451,.4803-.0088,.0132-.0027,.0275-.0077,.0412l-10.2718-9.832c1.8545-1.6688,3.8853-3.143,6.0557-4.4033Zm-6.0995,4.4413l8.3053,10.7278c-.7125,.4595-1.3829,1.0742-2.0075,1.8329l-11.3065-6.9958c1.4763-2.023,3.1533-3.8899,5.0087-5.5649Zm-5.0424,5.6122l10.1771,8.6166c-.5109,.8722-.8279,1.6785-.9913,2.5081l-12.9385-4.6446c1.0287-2.2965,2.2881-4.4665,3.7527-6.4802Zm-3.7761,6.5317l12.7796,6.8677c.0041,.7703,.0567,1.5511,.1218,2.3258l-15.2255-2.0712c.5282-2.4779,1.3149-4.8598,2.3241-7.1224Zm-2.3366,7.1761l14.4914,4.2248c-.4107,.4724-.7703,1.0105-1.0485,1.6135-.083,.1798-.162,.3717-.2404,.5745l-13.9861,1.0402c.002-2.5549,.2745-5.047,.7835-7.453Zm-.7836,7.508l13.1544,.9784c-.0797,.1472-.1611,.2934-.231,.4586-.3233,.7642-.221,1.6255-.0004,2.4769l-12.14,3.5392c-.5089-2.406-.7812-4.8982-.7831-7.4531Zm.7956,7.5067l12.804-1.7418c.1084,.127,.239,.225,.4071,.2625,.0515,.0118,.1029,.0171,.1545,.0171,.3278,0,.6501-.221,.9378-.4836l1.735-.236c-.3366,.6322-.5741,1.4033-.7059,2.3136l-13.0087,6.9908c-1.0092-2.2627-1.7957-4.6446-2.3238-7.1227Zm2.3472,7.1742l12.9247-4.6396c.1365,.9862,.5191,1.7607,1.1497,2.3057,.0149,.0129,.0328,.0223,.0486,.0342l-10.3703,8.7802c-1.4646-2.0138-2.7239-4.184-3.7526-6.4806Zm3.7862,6.5278l12.5832-7.7857c.2372,.0503,.4787,.0919,.7309,.1158,.0424,.0039,.0845,.0083,.127,.0114,.1394,.0105,.2715,.0351,.4148,.0374-.6173,1.1737-1.2253,2.4801-1.5505,3.7616l-7.2966,9.4249c-1.8555-1.6751-3.5325-3.5423-5.0088-5.5655Zm5.0524,5.6033l7.1018-6.7977c.1161,.5888,.35,1.144,.751,1.6413,.5599,.6947,1.5129,.9028,2.3635,.9338l-4.1603,8.6265c-2.1705-1.2604-4.2015-2.7348-6.0561-4.4038Zm6.1058,4.4324l6.0302-8.8554c.3415-.0886,.6893-.2055,1.0509-.3586,.1125-.048,.2239-.0967,.3356-.146,.294-.1295,.598-.2637,.9096-.3629,.0378-.0119,.0806-.0256,.1273-.0408,.3672-.1216,.9836-.3215,1.26-.2011,.1115,.0491,.1934,.1212,.2603,.2042l-3.1358,12.8183c-2.3997-.7838-4.6877-1.8135-6.8382-3.0577Zm6.8907,3.0755l2.9103-7.1124c.2685,.4843,.6614,.9314,1.1645,1.3029,.7328,.5405,1.5438,.7792,2.6723,.7792,.0937,0,.19-.0014,.2883-.0046,.1622-.0056,.3303-.0219,.4961-.0344l-.2022,6.6314c-2.5302-.266-4.9809-.799-7.3293-1.562Zm11.1312,1.7635c-1.2654,0-2.5154-.0669-3.7476-.1945l1.2229-6.7604c.0581-.0089,.1117-.0133,.1706-.023,.1085-.0178,.2245-.0473,.337-.0756,.1818-.0461,.3698-.0934,.5411-.0973,.0072-.0006,.0141-.0006,.0214-.0006,.189,0,.3777,.0552,.5609,.1085,.121,.0349,.2462,.071,.3705,.0913,.1772,.0289,.3484,.0428,.5145,.0428,.0868,0,.1654-.0206,.2493-.0279,.001,0,.0017-.0002,.0027-.0003,.8169-.0719,1.5007-.4788,2.0952-1.0472l1.4091,7.7898c-1.2321,.1276-2.482,.1945-3.7473,.1945Zm3.8016-.2014l-.2816-9.2343c.1408-.2083,.2781-.4186,.4099-.6291,.0253-.0401,.0519-.0821,.0795-.1256,.1348-.2103,.2874-.449,.3869-.6989h.002c.976,0,1.8545-.4437,2.5615-1.0675l4.1709,10.1934c-2.3484,.763-4.799,1.296-7.3292,1.562Zm7.3817-1.5798l-2.9112-11.9001c.0204-.0425,.0473-.0849,.0661-.1272,.6999-.0638,1.261-.1815,1.7653-.3701,.4101-.1533,.8022-.3417,1.18-.555l6.738,9.8948c-2.1505,1.2442-4.4385,2.2739-6.8383,3.0576Zm6.8879-3.0862l-5.2689-10.9252c.8003-.6681,1.5158-1.4444,2.157-2.2541l.1437,.1375c-.0704,.0845-.1356,.1711-.214,.2532-.2794,.2932-.4635,.5859-.5795,.9212-.2755,.7955-.1989,1.6588-.075,2.4727,.0135,.0868,.0246,.1841,.0365,.2867,.0497,.4285,.1224,.9324,.3829,1.246,.0079,.0096,.0172,.0177,.0254,.0269,.0433,.0477,.078,.1042,.1324,.14,.43,.2827,.9248-.0421,1.2519-.259,.6085-.3998,1.3018-.8942,1.8281-1.5234,.1507-.1802,.2665-.361,.3663-.5444l5.8696,5.6182c-1.8547,1.669-3.8857,3.1433-6.0563,4.4037Zm6.0999-4.4415l-5.5646-7.1877c.072-.7671,.5048-1.4977,.9285-2.2054,.2462-.411,.5007-.8363,.6702-1.2525,.0521-.1277,.0969-.2573,.1377-.3877l8.8372,5.4679c-1.4764,2.0232-3.1535,3.8903-5.0091,5.5654Zm5.0426-5.6126l-8.5856-7.2691c.0143-.3936,.0087-.7802-.0026-1.1466l-.0027-.0894c-.019-.6365-.0391-1.2945-.2994-1.86,.3416-.0733,.6441-.1825,.915-.3256l11.7282,4.2101c-1.0287,2.2967-2.2882,4.4669-3.7529,6.4807Zm3.7762-6.5321l-10.4479-5.6147c.1427-.3282,.2541-.7031,.337-1.1284,.1338-.6864,.2229-1.3656,.2739-2.0342l12.161,1.6543c-.5281,2.4782-1.3148,4.8602-2.324,7.1229Zm2.3364-7.1764l-12.1521-3.5428c-.0071-.076-.0109-.1514-.0193-.2264-.0371-.334-.0759-.6798,.0046-.9987,.024-.096,.0503-.1893,.0753-.2794,.1025-.3662,.1992-.7114,.1331-1.1347-.017-.1085-.0435-.2143-.075-.3182l12.8167-.9532c-.0019,2.555-.2743,5.0472-.7832,7.4534Z"/><path class="cls-1" d="M148.0269,240.9967c-1.4663-.528-2.8866-1.2991-4.6602-.8831,.6923-1.3335,1.7034-.8108,2.6464-.704-.5006-.3895-.9506-.7397-1.4007-1.0899,.0374-.0853,.0748-.1705,.1121-.2557,.445-.1518,.8899-.3037,1.3729-.4686-.9916-.5954-2.0423-.7554-3.1055-.4586-.6714,.1875-1.4903,.4061-1.5811,1.2848-.137,1.3251,.2564,2.4688,1.4602,3.2223-.0217,.0726-.0434,.1452-.0651,.2178-.1876-.0453-.4316-.033-.5503-.149-.1985-.194-.3171-.4698-.4692-.7113-.0566,1.2166,1.0063,2.3983,2.4147,2.7497-.3926-.3671-.8725-.6006-.9209-.903-.1275-.7987,.6514-.1102,.874-.3953-.2414-.2798-.4648-.5388-.6884-.7979,.0588-.0903,.1175-.1807,.1762-.2711,.942,.7692,1.9598,.8235,3.049,.5413,.2348-.0608,.541,.1806,.8208,.2598,.2578,.0731,.5954,.2393,.7689,.1396,.2139-.1228,.4442-.5147,.3932-.7233-.0598-.2443-.3813-.5089-.647-.6046Z"/><path class="cls-1" d="M138.1394,248.6429c.115,.0057,.2288,.039,.3431,.0598,.0322,.0567,.0646,.1134,.0969,.1701-.1863,.095-.3726,.19-.5589,.285,.0549,.072,.1097,.1441,.1646,.2161,.2259-.1072,.4422-.2489,.6796-.3152,.7205-.2011,1.4458-.4943,2.1758-.5145,.5039-.014,.9676,.1703,1.1704-.4514,.1977-.6061-.0705-1.2143-.5878-1.3307-1.1026-.2481-2.1541-1.4149-3.3861-.3479-.4022,.3483-.8755,.6782-1.1165,1.1244-.1338,.2476,.0856,.7522,.2689,1.0699,.0671,.1162,.4901,.0216,.7501,.0344Z"/><path class="cls-1" d="M148.1392,237.1822c-.7654-.6469-1.5698-1.2478-2.3575-1.8685-.2692-.2121-.5373-.4257-.806-.6386-.0533,.0619-.1067,.1238-.1601,.1857,1.6292,2.4828,3.4189,4.8305,5.9383,6.7537-.2912-.0949-.4161-.1355-.541-.1761-.0196,.035-.0391,.07-.0587,.1049,.5693,.4311,1.1387,.8623,1.8841,1.4267-.9926-1.6673-1.8414-3.1515-2.7555-4.5945-.2896-.457-.7239-.8385-1.1437-1.1934Z"/><path class="cls-1" d="M141.0261,253.2567c-.941-.3233-1.8814-.2637-2.9262-.1588l-.0845,.0083,.0115,.0845c.0627,.4468,.1786,.7074,.3764,.8444,.1658,.1146,.3828,.1402,.669,.0755,.0915-.0211,.1985,.0032,.3105,.0282,.0858,.0186,.1741,.0384,.2637,.0403l.162,.0045c.1524,.0038,.3066,.0083,.4609,.0083,.2151,0,.4302-.0083,.6421-.0365,.1831-.025,.3527-.2887,.4097-.4584,.0467-.1389-.1607-.3937-.2951-.4404Z"/><path class="cls-1" d="M141.446,250.343c-1.0825-.3106-2.0054-.4045-2.7627-.3867-1.6661,.0391-2.5307,.6186-2.5307,.6186-.3892,.9609,.6228,1.8225,.6228,1.8225h0c.292-.2796,1.1084-.5403,5.2394-.5349,.2754,.0004,.5656,.0019,.8713,.0047h0c1.445,.0132-1.4401-1.5242-1.4401-1.5242Z"/></g></g></g></g><g id="Wordmark_OK_copy"><path id="Base" class="cls-1" d="M193.3841,290.1198c-.1882-.7965-.4983-1.5402-.9221-2.2122-.0499-.079-.1013-.1567-.1544-.2331,.3276-.2087,.6071-.4911,.8159-.8345,.2738-.4421,.4123-.9187,.4123-1.4178,0-.2291-.0239-.4551-.0711-.6725-.69-3.3764-2.7072-5.5383-5.6827-6.0891-.3138-.0581-.9435-.0876-.9435-.0876-.6123,0-1.21,.1117-1.7767,.3318-.2498,.097-4.0191,2.0869-4.0191,2.0869,.1714-.7009,.0875-1.4071-.2591-2.0182-.4188-.7376-1.142-1.2294-1.9846-1.35-.8976-.1285-2.529-.3407-2.6653-.3407-.3231,0-.6361,.0541-.9281,.159-.3581-.2251-.7835-.3697-1.2713-.4304-.7909-.0986-2.2459-.2632-2.3749-.2632-.7502,0-1.2848,.2778-1.6012,.5107-.0084,.0062-.0168,.0125-.0251,.0188-.0647,.0489-2.6108,2.1856-2.6178,2.1909-.162-.3525-.3398-.6906-.5392-1.0061-.4931-.7805-1.0938-1.4334-1.7855-1.9406-.8156-.5982-1.7167-.9415-2.6781-1.0203-1.2818-.105-3.5609-.2996-3.7497-.2996-.798,0-1.5433,.3439-2.045,.9435-.1049,.1254-1.934,2.9491-1.9479,2.9717-.2279-.575-.5002-1.1121-.8219-1.5977-.5164-.7786-1.1384-1.4206-1.8493-1.909-.8446-.5798-1.7681-.8906-2.7455-.9242-.0605-.0021-.1808-.0031-.1808-.0031-1.0037,0-1.9389,.2826-2.7798,.8397-.7406,.4907-1.3756,1.1408-1.8873,1.9324-.463,.7181-1.8008,2.9835-1.8008,2.9835,0,0,.0007-2.3256,.0008-2.3266,.1284-.9107-.0413-1.6856-.5045-2.3033-.5369-.7155-1.3634-1.1255-2.2681-1.1258,0,0-1.2732,.0014-1.9777,.0062-1.4446,.0095-2.5945,1.0208-2.8614,2.5164-.0026,.0146-.0667,.4144-.0953,.5933-.2951-.1056-.5949-.1531-.8734-.1531-.0131,0-.4728,.0275-.7871,.1289-.0054-.0275-.1325-.5569-.1393-.5882-.3021-1.4016-1.4194-2.3432-2.78-2.3432-.0283,0-1.3774,.047-2.2299,.0827-1.0073,.0421-1.8642,.5748-2.3043,1.3974-.2552,.4477-.4601,1.1073-.2994,1.9852,.0067,.0402-1.0528-1.7092-1.0929-1.7679-.4598-.804-1.2972-1.339-2.2832-1.339-.0534,0-.1243,.0023-.1776,.0058-2.7885,.1791-4.2316,.2902-7.0172,.5403-1.4196,.1275-2.445,1.2919-2.4382,2.7687l.0089,1.9362c-.0342-.0282-3.7005-2.9759-4.1224-3.1865-.6874-.3432-1.4237-.5173-2.1886-.5173-.2079,0-2.5722,.2836-3.7847,.4484-.8656,.0151-1.6483,.3948-2.1541,1.0471-.0867,.1118-.1637,.2309-.23,.3559-.3,.565-.3228,1.1059-.3206,1.5686l.0064,1.3755c-.0104-.0047-5.3525-2.8245-5.3743-2.832-.2686-.0919-.5519-.1385-.8421-.1385-.162,0-.3233,.0141-.493,.043-.8028,.1369-1.2041,.2069-2.0063,.3498-1.0508,.1877-1.8668,.9443-2.1307,1.9749-.0123,.0478-.0231,.0959-.0324,.1444-1.2086,6.2563-1.7953,9.1711-2.9611,14.7068-.2297,.8005-.0845,1.6411,.4116,2.3053,.0676,.0905,.1414,.1764,.2208,.2568,.4422,.4484,1.0117,.6908,1.6829,.7465,.1157,.0237,21.6294,2.8282,28.8854,3.2022,11.0056,.5672,33.6376,.8738,45.3962-.0002,5.9794-.4444,25.4331-3.1798,25.5455-3.1974,.7956-.0776,1.5435-.3014,2.2263-.682,.755-.4208,1.4098-.9701,1.9463-1.6326,.5197-.643,.9193-1.3665,1.1893-2.1524,.274-.7978,.4084-1.6027,.3997-2.3927-.0075-.6789-.0987-1.3943-.271-2.1265Z"/><g id="Main_Letters"><path class="cls-2" d="M93.2977,281.0553c.0564-.0096,.0957-.0102,.1182-.0025,.0225,.0084,.0394,.0422,.051,.1001,1.2233,5.8653,1.8394,8.9044,3.0767,15.1615,.0116,.124,.012,.2235,.0011,.2985-.0566,.0372-.1413,.049-.2542,.0372-.8282,.0077-1.2423,.0115-2.0705,.0189-.1017-.0123-.1782-.0335-.2293-.0642-.0508-.03-.0879-.0996-.1108-.2086-.0916-.4109-.1632-.7424-.2146-.9955-.0516-.2531-.1032-.484-.1547-.6942-.0512-.2095-.0769-.3208-.077-.333-.8952,.0222-1.3428,.0336-2.2379,.057,0,.0119-.0195,.1244-.0587,.3362-.0395,.2125-.084,.4421-.1346,.6891-.0506,.2464-.1154,.5698-.1938,.9673-.0225,.0936-.0504,.1549-.0845,.1839-.0337,.0296-.1077,.0441-.2205,.0441-.8621,.0002-1.2932,.0003-2.1553,.0005-.1131,0-.181-.0108-.2036-.0338-.0338-.0452-.0338-.1076,0-.1868,1.2081-5.7346,1.8065-8.7166,2.9963-14.8759,.022-.0859,.0783-.1371,.1681-.1531,.7951-.1416,1.1929-.211,1.9887-.3467Zm-1.4295,10.5693c.386-.0222,.579-.0332,.9651-.055,.0111-.0006,.028-.013,.0508-.0386,0-.0143,0-.0215,0-.0358v-.054c-.1032-.5447-.1888-.9847-.2572-1.3195-.0685-.3355-.1311-.6498-.1883-.9432-.0572-.2927-.0912-.4686-.1025-.5273-.0113,.0493-.0365,.1797-.0754,.3908-.0389,.2118-.0836,.4526-.1338,.7242-.05,.2709-.1003,.5447-.1506,.8207-.0503,.2767-.0921,.5016-.1255,.675-.0337,.1735-.0504,.2664-.0503,.2778,0,.0072,0,.0108,0,.018,0,.024,.0112,.0347,.0341,.0334,0,.024,.0112,.0347,.0338,.0334Z"/><path class="cls-2" d="M102.4285,279.6748c1.3272-.1808,1.9912-.2672,3.32-.4318,.4972-.0616,.9674,.0157,1.4092,.2363,.4419,.2207,.8288,.5498,1.1588,.9871,.3302,.4375,.5929,.965,.7885,1.5802,.1953,.6145,.2948,1.2821,.2984,1.9983,0,.0081,0,.0121,0,.0202,.0058,1.171-.1985,2.2094-.6126,3.1057-.4144,.8964-.9938,1.5387-1.7385,1.9293,.1836,.5333,.3472,1.0084,.4908,1.4243,.1432,.4166,.3039,.8805,.4821,1.3934,.1778,.5136,.3499,1.0224,.5165,1.5251,.1666,.5035,.3245,.9741,.4739,1.4119,.1491,.4379,.2668,.7844,.3528,1.0391,.0864,.2539,.1294,.3882,.1295,.4022,.0001,.0279,.0057,.0551,.0173,.0822,.0113,.0279,.0171,.0489,.0172,.0621,.0001,.0279-.0055,.0551-.0165,.0831-.0113,.0272-.0167,.0481-.0166,.0621-.0227,.0551-.0735,.0823-.1526,.0823-.9639,.0001-1.4458,.0002-2.4097,.0003-.0679,0-.1103-.0099-.1273-.0305-.017-.0206-.0373-.0641-.0602-.1319-.1952-.5548-.364-1.0363-.5075-1.4459-.1433-.4091-.2987-.8577-.4649-1.345-.1665-.4872-.3242-.9427-.4732-1.3668-.1493-.4241-.2782-.784-.387-1.0801-.1091-.2968-.1696-.4707-.181-.5236,.0105,2.1616,.0158,3.2424,.0263,5.4039,.0005,.1067-.0019,.1932-.007,.2601-.0054,.0669-.0249,.1271-.0587,.1804-.0335,.0534-.1523,.0797-.3559,.0797-.7466,.0001-1.12,.0002-1.8666,.0003-.1587,0-.2456-.0421-.2719-.0781-.0279-.0381-.0685-.1443-.0693-.3137-.0299-6.4478-.0448-9.6719-.0746-16.1197-.001-.2225,.0095-.3551,.0319-.3972,.0563-.0726,.1691-.1015,.3384-.0854Zm2.2701,6.8284c.4205-.0316,.6308-.0472,1.0514-.0779,.192-.014,.3557-.0865,.4908-.218,.1351-.1308,.2471-.2943,.3369-.4909,.0892-.1957,.156-.4145,.2004-.6553,.0437-.2401,.0655-.4824,.0643-.7266,0-.0079,0-.0119,0-.0198-.0013-.2572-.028-.5092-.0802-.7556-.0522-.2456-.124-.4655-.2154-.6603-.0914-.194-.211-.3445-.3584-.4515-.1474-.1062-.312-.1501-.4925-.1317-.4069,.0416-.6103,.0627-1.017,.1056,.0079,1.6328,.0119,2.4492,.0198,4.082Z"/><path class="cls-2" d="M121.9914,277.676c.1362-.0087,.2046,.0817,.2053,.2722,.004,1.0974,.0059,1.6461,.0099,2.7434,.0003,.0734-.0193,.1404-.0587,.2002-.0397,.0606-.0879,.0928-.1444,.0958-.871,.0462-1.3064,.0708-2.1771,.1227,.0243,6.1104,.0365,9.1654,.0609,15.2756,.0008,.1888-.0668,.2828-.2025,.2828-.8757,0-1.3135,.0001-2.1891,.0002-.1469,0-.2209-.093-.2218-.2797-.0262-6.0448-.0394-9.0673-.0656-15.1123-.8634,.0584-1.295,.089-2.1581,.153-.0568,.0042-.1022-.0212-.1363-.0755-.0344-.0534-.0516-.1161-.0519-.1873-.0049-1.0647-.0073-1.5971-.0122-2.6619-.0008-.1847,.061-.2824,.1858-.2936,2.7802-.2496,4.1716-.3567,6.956-.5356Z"/><path class="cls-2" d="M130.2048,277.3171c.1929-.0066,.3183,.124,.3758,.3907,.6072,3.8,.9103,5.706,1.5152,9.5261,.6622-2.6867,.9937-4.0331,1.6579-6.7283,.0563-.2564,.1127-.3851,.1697-.3861,.0908-.0016,.1591,.1249,.2049,.3796,.671,2.6735,1.006,4.0137,1.6751,6.6975,.6089-3.8201,.914-5.7323,1.5256-9.5567,.0565-.3167,.2043-.4757,.4428-.4773,.7842-.0052,1.1762-.0064,1.9604-.0061,.1248,0,.2215,.0451,.2897,.136,.0566,.0756,.0682,.2334,.0342,.4742-1.0124,6.2171-2.0195,12.435-3.023,18.6536-.0337,.1662-.1015,.2484-.2035,.2484-.7738,0-1.1607,0-1.9345,0-.1472,0-.2375-.0821-.2718-.2479-.2604-2.2259-.3908-3.3383-.6518-5.5612-.2623,2.2262-.3933,3.3386-.6549,5.5616-.0336,.1656-.1074,.2476-.2202,.2476-.7603,0-1.1404,0-1.9007,0-.1695,0-.2717-.0817-.3058-.2468-1.0123-6.1834-2.0347-12.3653-3.0688-18.5452-.0344-.1769-.0235-.2963,.0333-.3581,.0225-.0755,.1018-.1157,.238-.1215,.8449-.0354,1.2675-.0514,2.1126-.0803Z"/><path class="cls-2" d="M150.4982,277.6494c.4505,.3095,.8465,.7217,1.1878,1.2363,.341,.5146,.6105,1.1074,.8087,1.7789,.1975,.6715,.2958,1.371,.2937,2.1014-.0098,3.4513-.0147,5.1769-.0245,8.6281-.0018,.6406-.0951,1.2766-.2787,1.9085-.1843,.6328-.4389,1.1979-.7648,1.6974-.3259,.4987-.7168,.9024-1.1725,1.2082-.4563,.3067-.9632,.4607-1.5204,.4606-.5011,0-.973-.1422-1.4163-.4292-.4432-.2861-.8328-.6746-1.1678-1.1655-.335-.4909-.6017-1.0612-.8001-1.7108-.1987-.6496-.2973-1.3451-.2963-2.0852,.0046-3.5237,.0069-5.2856,.0114-8.8094,.0008-.6491,.0901-1.2977,.268-1.9433s.4303-1.2215,.7564-1.7274c.3265-.505,.7192-.9104,1.1762-1.2132,.4572-.3029,.9608-.4453,1.5093-.4265,.5025,.0173,.9791,.1815,1.4299,.4909Zm-.3966,4.7632c.0004-.1799-.022-.3719-.0672-.5755-.045-.2029-.1104-.3927-.1959-.5676-.0851-.1749-.1935-.321-.3242-.4372-.1313-.1163-.2824-.1774-.4535-.1822-.1714-.0048-.3231,.0477-.4545,.1568-.1315,.1091-.2401,.2495-.326,.4203-.0859,.1707-.1522,.3573-.1982,.5588-.0461,.2024-.0692,.3934-.0696,.574-.0069,3.6743-.0103,5.5114-.0172,9.1856-.0008,.4213,.0896,.8026,.2712,1.1419,.1816,.3392,.4376,.51,.768,.5121,.3301,.002,.5865-.1426,.7697-.4336,.1826-.291,.275-.6913,.2761-1.2014,.0085-3.6607,.0127-5.491,.0211-9.1518Z"/><path class="cls-2" d="M158.7575,277.7128c1.3417,.0935,2.0123,.1444,3.3531,.2542,.5016,.0411,.9746,.225,1.4174,.5497,.4429,.3248,.829,.7478,1.1569,1.2669,.3281,.5194,.5871,1.1134,.7778,1.7821,.1904,.6679,.284,1.3696,.2805,2.107,0,.0083,0,.0125-.0001,.0208-.0057,1.2056-.2214,2.2448-.6468,3.1272-.4257,.8823-1.0149,1.4973-1.7682,1.8419,.1796,.5807,.3396,1.0947,.48,1.5427,.14,.4488,.2972,.9464,.4714,1.4931,.1739,.5474,.342,1.0861,.5046,1.6154,.1627,.5301,.3168,1.0227,.4628,1.4789,.1457,.4562,.2607,.8151,.3447,1.0785,.0844,.2625,.1263,.4007,.1263,.4151-.0001,.0288,.0052,.0567,.0166,.0847,.0111,.0288,.0167,.0503,.0167,.0639-.0001,.0287-.006,.0567-.0174,.0854-.0117,.0279-.0172,.0495-.0173,.0639-.0233,.0567-.0748,.0847-.1543,.0847-.9694-.0001-1.4542-.0002-2.4236-.0003-.0683,0-.1109-.0105-.1277-.0324-.0169-.0219-.0369-.068-.0593-.1401-.191-.5896-.3561-1.1051-.4965-1.5455-.1402-.4398-.2922-.9242-.4547-1.4534-.1628-.5292-.3172-1.0269-.4631-1.4927-.1462-.4658-.2725-.8635-.3792-1.1918-.107-.3291-.1662-.5227-.1772-.581-.0099,2.3486-.0148,3.5229-.0247,5.8715-.0005,.116-.0038,.2099-.0095,.2826-.0061,.0727-.0262,.138-.0608,.196-.0342,.058-.1539,.0866-.3587,.0866-.751,0-1.1264-.0001-1.8774-.0002-.1596,0-.2457-.0462-.2728-.0875-.0275-.0419-.0677-.1618-.0669-.3516,.0276-7.2234,.0415-10.8351,.0692-18.0588,.001-.2492,.0128-.3953,.0358-.4375,.0575-.0687,.1716-.0757,.3424-.0201Zm2.2259,7.9085c.4239,.0195,.6358,.0294,1.0597,.0498,.1935,.0093,.359-.0476,.4963-.1706,.1373-.1222,.2516-.2817,.3439-.4785,.0917-.1961,.1611-.419,.2081-.6681,.0464-.2483,.0706-.5018,.0718-.7607,0-.0084,0-.0126,0-.021,.0012-.2727-.0232-.5437-.0734-.8132-.0502-.2688-.1204-.5139-.2105-.7363-.0902-.2216-.2092-.4024-.3566-.5423-.1474-.1391-.3128-.2154-.4948-.2277-.4103-.0276-.6155-.0411-1.0259-.0675-.0075,1.7745-.0112,2.6617-.0187,4.4361Z"/><path class="cls-2" d="M178.6322,280.1941c.0464,.0819,.0323,.2215-.0687,.4111-1.1237,2.8702-1.6868,4.3456-2.8142,7.3644-.0113,.0647-.0172,.1033-.0172,.1166,0,.0132,.0054,.0526,.0161,.1181,1.1039,3.2863,1.6562,4.8971,2.7627,8.0402,.0774,.1664,.1101,.2978,.0823,.3451-.0279,.0474-.1402,.0761-.2854,.0761-.8789-.0001-1.3184-.0002-2.1973-.0004-.1005,.0125-.1675-.0066-.201-.0588-.0331-.0522-.0721-.1301-.1161-.2346-.7541-2.2722-1.1308-3.4258-1.884-5.7633-.0115,2.3509-.0173,3.5264-.0288,5.8773-.0003,.0558-.0004,.0837-.0007,.1395-.0225,.0269-.0729,.0395-.1511,.0395-.899-.0001-1.3484-.0002-2.2474-.0003-.0898,0-.1455-.0129-.1677-.0403s-.0329-.0942-.0324-.202c.0334-6.7457,.0502-10.1187,.0836-16.8647,.0009-.1747,.0209-.2772,.0601-.3069,.0392-.0289,.1202-.0362,.2433-.0217,.7844,.092,1.1765,.1394,1.9603,.237,.1563,.0195,.2512,.0509,.2847,.0954,.0331,.0437,.0493,.1517,.0484,.324-.0113,2.3193-.017,3.479-.0284,5.7983,.7825-2.313,1.1735-3.4524,1.9546-5.6919,.0449-.1111,.0873-.1804,.1265-.2082,.0391-.0271,.109-.0339,.2095-.0204,.8902,.1199,1.3352,.1817,2.2246,.309,.0892,.0128,.1483,.0598,.1836,.122Z"/><path class="cls-2" d="M184.0461,283.3856c.1957-.5448,.4566-1.003,.7821-1.3727,.3258-.369,.7022-.6364,1.1297-.8024,.4272-.166,.8899-.2072,1.3738-.1176,1.9867,.3678,3.2361,1.8094,3.7135,4.1718,.0112,.0475,.017,.1,.017,.1575,0,.0575-.0356,.1042-.0509,.1304-.0196,.0334-.0798,.0748-.2047,.0573-.8327-.1165-1.2491-.1735-2.0825-.2853-.1254-.0168-.2077-.0631-.2474-.1398-.0397-.076-.0779-.174-.0936-.2789-.0336-.2254-.1186-.4552-.2892-.6459-.1703-.1913-.3695-.3039-.5968-.3368-.3302-.0478-.5979,.022-.8033,.2106-.2855,.2626-.4289,.736-.4305,1.4155-.0014,.5824,.1028,1.0465,.3131,1.3893,.2099,.3434,.5148,.5336,.9139,.5751,.0683,.0071,.1025,.0107,.1708,.0178,.6384,.0666,1.1794,.2578,1.6238,.5678,.444,.3093,.8056,.6854,1.0848,1.1277,.2789,.4423,.4811,.9285,.6067,1.4599,.1253,.532,.1996,1.0655,.2053,1.5868,.0057,.5211-.0885,1.0457-.2656,1.5616-.1775,.5165-.435,.9821-.7723,1.3995-.3379,.4174-.7473,.7606-1.2284,1.0287s-1.025,.4056-1.6316,.4055c-.9046-.0002-1.6649-.3168-2.2811-.9687-.6161-.6518-1.025-1.5885-1.2269-2.8041,.0002-.0624,.003-.1241,.0093-.1862,.0057-.0622,.0258-.1112,.0604-.1469,.0456-.0605,.1259-.0879,.2402-.083,.8369,.0357,1.2553,.0539,2.0919,.0912,.1941,.0086,.2911,.1099,.2907,.3035-.0007,.3144,.0844,.5598,.2556,.7349,.171,.1744,.4155,.2704,.7196,.2755,.3827,.0064,.6976-.1567,.9267-.4677,.2291-.311,.3439-.7361,.3446-1.2792,.0005-.3536-.039-.645-.1185-.8744-.0798-.2294-.1853-.4146-.316-.5539-.1313-.1394-.2736-.2421-.4278-.3069-.1539-.0648-.3053-.1028-.4536-.1135-.0822-.0059-.1233-.0089-.2055-.0148-.3881-.0279-.7617-.1411-1.1208-.344-.3594-.2023-.6926-.4806-.9997-.8366-.4328-.5017-.7677-1.103-1.005-1.8022-.2377-.6992-.3491-1.4011-.3356-2.0974,.0134-.6592,.1179-1.2633,.3136-1.8088Z"/></g><g id="Entertainment"><path class="cls-1" d="M88.1011,305.8772h-1.3765v1.4193h1.1114v.7028h-1.1114v1.4913h1.3765v.7024h-2.1363v-5.0182h2.1363v.7024Z"/><path class="cls-1" d="M97.0807,310.193h-.7457l-.9966-3.3263h-.0141v3.3263h-.7169v-5.0182h.8459l.8963,2.9893h.0141v-2.9893h.7169v5.0182Z"/><path class="cls-1" d="M105.8796,305.8913h-.8102v4.3017h-.7602v-4.3017h-.8097v-.7165h2.3801v.7165Z"/><path class="cls-1" d="M114.4339,305.8772h-1.3765v1.4193h1.1114v.7028h-1.1114v1.4913h1.3765v.7024h-2.1363v-5.0182h2.1363v.7024Z"/><path class="cls-1" d="M122.6537,310.193l-.6021-2.1221h-.3516v2.1221h-.7598v-5.0182h1.0969c.4111,0,.724,.1086,.9391,.3258,.2151,.2176,.3225,.5318,.3225,.9429v.3587c0,.5305-.1789,.8984-.5376,1.1039l.6957,2.2869h-.8031Zm-.9537-4.3158v1.4913h.3083c.1818,0,.3154-.0503,.4015-.1506s.129-.2555,.129-.466v-.258c0-.2105-.0429-.3658-.129-.466s-.2197-.1506-.4015-.1506h-.3083Z"/><path class="cls-1" d="M132.0239,305.8913h-.8102v4.3017h-.7602v-4.3017h-.8097v-.7165h2.3801v.7165Z"/><path class="cls-1" d="M140.6677,310.193h-.7744l-.1648-1.1397h-.8389l-.1648,1.1397h-.7602l.8676-5.0182h.9679l.8676,5.0182Zm-1.3694-3.943l-.3083,2.1151h.6383l-.3083-2.1151h-.0216Z"/><path class="cls-1" d="M147.8805,310.193h-.7598v-5.0182h.7598v5.0182Z"/><path class="cls-1" d="M156.9674,310.193h-.7457l-.9966-3.3263h-.0141v3.3263h-.7169v-5.0182h.8459l.8963,2.9893h.0141v-2.9893h.7169v5.0182Z"/><path class="cls-1" d="M166.7995,310.193h-.7598v-3.484h-.0146l-.6308,2.7671h-.4515l-.6312-2.7671h-.0141v3.484h-.7169v-5.0182h.9966l.595,2.6955h.0141l.588-2.6955h1.0253v5.0182Z"/><path class="cls-1" d="M175.5544,305.8772h-1.3765v1.4193h1.1114v.7028h-1.1114v1.4913h1.3765v.7024h-2.1363v-5.0182h2.1363v.7024Z"/><path class="cls-1" d="M184.5339,310.193h-.7457l-.9966-3.3263h-.0141v3.3263h-.7169v-5.0182h.8459l.8963,2.9893h.0141v-2.9893h.7169v5.0182Z"/><path class="cls-1" d="M193.3329,305.8913h-.8102v4.3017h-.7602v-4.3017h-.8097v-.7165h2.3801v.7165Z"/></g></g></g></g></svg>